<?xml version="1.0" encoding="UTF-8" standalone="no"?>
<!-- Created with Inkscape (http://www.inkscape.org/) -->

<svg
   width="512"
   height="512"
   viewBox="0 0 135.46667 135.46666"
   version="1.1"
   id="svg1"
   xml:space="preserve"
   inkscape:version="1.4 (86a8ad7, 2024-10-11)"
   sodipodi:docname="JobShopLabLogo.svg"
   xmlns:inkscape="http://www.inkscape.org/namespaces/inkscape"
   xmlns:sodipodi="http://sodipodi.sourceforge.net/DTD/sodipodi-0.dtd"
   xmlns="http://www.w3.org/2000/svg"
   xmlns:svg="http://www.w3.org/2000/svg"><sodipodi:namedview
     id="namedview1"
     pagecolor="#ffffff"
     bordercolor="#000000"
     borderopacity="0.25"
     inkscape:showpageshadow="2"
     inkscape:pageopacity="0.0"
     inkscape:pagecheckerboard="0"
     inkscape:deskcolor="#d1d1d1"
     inkscape:document-units="mm"
     inkscape:zoom="1.0267829"
     inkscape:cx="196.24402"
     inkscape:cy="256.62679"
     inkscape:window-width="1920"
     inkscape:window-height="1017"
     inkscape:window-x="-8"
     inkscape:window-y="-8"
     inkscape:window-maximized="1"
     inkscape:current-layer="layer1" /><defs
     id="defs1" /><g
     inkscape:label="Ebene 1"
     inkscape:groupmode="layer"
     id="layer1"><path
       class="cls-109"
       d="m 44.603036,129.98014 c 15.258979,4.5958 30.853743,5.29294 45.957857,-0.33569 11.773477,0.56794 23.934277,-0.0488 35.372067,2.81422 0.0488,0.3874 -6.81623,1.42004 -7.43588,1.49752 -16.88561,1.98807 -84.118383,2.03969 -100.823358,0 -2.685213,-0.33569 -10.172718,-1.26518 -2.969182,-2.63359 4.389221,-0.82654 25.612519,-1.85897 29.924258,-1.3167 z"
       id="path44"
       style="fill:#dcddde;stroke-width:2.5819"
       inkscape:export-filename="JobShopLabLogo"
       inkscape:export-xdpi="96"
       inkscape:export-ydpi="96" /><ellipse
       style="fill:#e9f5fa;fill-opacity:1;stroke:#0e4a6b;stroke-width:6.83086;stroke-linejoin:bevel;stroke-dasharray:none;stroke-opacity:1"
       id="ellipse44"
       cx="66.898529"
       cy="77.038605"
       rx="53.949654"
       ry="53.949631" /><circle
       style="fill:#e9f5fa;fill-opacity:1;stroke:#289fb2;stroke-width:3.90335;stroke-linejoin:bevel;stroke-dasharray:none;stroke-opacity:1"
       id="circle44"
       cx="66.898529"
       cy="77.038605"
       r="45.286407" /><g
       id="g57"
       transform="matrix(8.3941467,0,0,8.3941467,-824.07544,-1983.38)"><path
         class="cls-122"
         d="m 106.14888,240.56438 c 0.24077,-0.037 0.23813,0.93134 -0.0688,0.77788 -0.0609,-0.0291 -0.12435,-0.74877 0.0688,-0.77788 z"
         id="path46"
         style="fill:#0c3653;stroke-width:0.264583" /><path
         class="cls-122"
         d="m 102.38651,247.61024 c 0.57414,-0.10848 -0.12436,0.47889 -0.30427,0.508 -0.55563,0.0873 0.11641,-0.47361 0.30427,-0.508 z"
         id="path47"
         style="fill:#0c3653;stroke-width:0.264583" /><path
         class="cls-122"
         d="m 109.80542,247.61024 c 0.12171,-0.0423 0.64823,0.28575 0.66146,0.32279 0.15611,0.46831 -1.01864,-0.19579 -0.66146,-0.32279 z"
         id="path48"
         style="fill:#0c3653;stroke-width:0.264583" /><path
         class="cls-122"
         d="m 104.01369,249.16863 c 0.34925,-0.0556 -0.0979,0.78846 -0.30427,0.71173 -0.19843,-0.0741 0.24342,-0.70114 0.30427,-0.71173 z"
         id="path49"
         style="fill:#0c3653;stroke-width:0.264583" /><path
         class="cls-122"
         d="m 108.24703,249.16863 c 0.19579,-0.0582 0.67998,0.88106 0.23812,0.71173 -0.037,-0.0159 -0.43921,-0.65087 -0.23812,-0.71173 z"
         id="path50"
         style="fill:#0c3653;stroke-width:0.264583" /><path
         class="cls-7"
         d="m 101.30436,245.44065 c 0.39952,-0.15346 1.06098,0.17198 0.57679,0.26988 -0.16139,0.0317 -1.04775,-0.0926 -0.57679,-0.26988 z"
         id="path51"
         style="fill:#152740;stroke-width:0.264583" /><path
         class="cls-122"
         d="m 110.28167,243.03559 c 0.61913,-0.0741 -0.40746,0.70379 -0.52387,0.45773 -0.0741,-0.15346 0.48948,-0.45244 0.52387,-0.45773 z"
         id="path52"
         style="fill:#0c3653;stroke-width:0.264583" /><path
         class="cls-122"
         d="m 101.9473,243.03559 c 0.17991,-0.0609 1.03187,0.58473 0.43921,0.508 -0.0397,-0.005 -0.75671,-0.40217 -0.43921,-0.508 z"
         id="path53"
         style="fill:#0c3653;stroke-width:0.264583" /><path
         class="cls-122"
         d="m 103.77557,241.24172 c 0.0714,0.005 0.59531,0.77258 0.23812,0.74612 -0.0767,-0.005 -0.59531,-0.77258 -0.23812,-0.74612 z"
         id="path54"
         style="fill:#0c3653;stroke-width:0.264583" /><path
         class="cls-7"
         d="m 110.38221,245.44065 c 0.0397,-0.0185 0.81492,-0.0952 0.72761,0.18521 -0.0503,0.16404 -1.20121,0.0238 -0.72761,-0.18521 z"
         id="path55"
         style="fill:#152740;stroke-width:0.264583" /><path
         class="cls-122"
         d="m 108.51955,241.24172 c 0.39158,-0.09 -0.082,0.73554 -0.23813,0.71172 -0.25664,-0.0397 0.19579,-0.70114 0.23813,-0.71172 z"
         id="path56"
         style="fill:#0c3653;stroke-width:0.264583" /><path
         class="cls-122"
         d="m 106.14888,249.56021 c 0.24077,-0.037 0.23813,0.93134 -0.0688,0.77788 -0.0609,-0.0291 -0.12435,-0.74877 0.0688,-0.77788 z"
         id="path57"
         style="fill:#0c3653;stroke-width:0.264583" /></g><path
       style="fill:#e6802d;fill-opacity:1;stroke:#000000;stroke-width:1.91913;stroke-linecap:round;stroke-linejoin:round;stroke-dasharray:none"
       d="m 52.901843,63.310515 3.591951,15.566367 c 0,0 10.228184,-3.933894 10.140769,-4.283634 -0.08783,-0.34935 -8.137823,-12.943804 -8.137823,-12.943804 z"
       id="path11"
       sodipodi:nodetypes="ccscc" /><path
       style="fill:#e6802d;fill-opacity:1;stroke:#000000;stroke-width:1.91913;stroke-linecap:round;stroke-linejoin:round;stroke-dasharray:none"
       d="m 60.468527,59.679423 11.463654,-0.34935 -0.08783,-4.720713 -12.419964,-0.437175 c 1.182051,1.666731 1.427397,3.511162 1.043678,5.50753 z"
       id="path12"
       sodipodi:nodetypes="ccccc" /><path
       style="fill:none;stroke:#000000;stroke-width:1.71935;stroke-linecap:round;stroke-linejoin:round;stroke-dasharray:none"
       d="m 76.140617,61.731609 3.171765,10.088796 7.05396,1.315722 -3.177327,-0.706507 -2.104463,-7.974838 1.938326,-1.661461 8.486558,2.145769 c 0,0 1.114885,4.719151 0.94871,3.279303 -0.166088,-1.439946 -2.125102,-7.252621 -2.125102,-7.252621 l -9.318967,-3.332291 c -0.73744,2.562843 -2.574552,3.614503 -4.873479,4.098128 z"
       id="path9"
       sodipodi:nodetypes="cccccccscccc" /><path
       style="fill:none;stroke:#000000;stroke-width:1.71935;stroke-linecap:round;stroke-linejoin:round;stroke-dasharray:none"
       d="m 77.097163,64.676297 c 0.684745,1.424625 8.119955,-4.180098 7.91941,-5.316559"
       id="path10"
       sodipodi:nodetypes="cc" /><circle
       style="fill:#e9f5fa;fill-opacity:1;stroke:#000000;stroke-width:1.31669;stroke-linecap:round;stroke-linejoin:round;stroke-dasharray:none"
       id="circle9"
       cx="76.334686"
       cy="56.91523"
       r="4.7534766" /><circle
       style="fill:#e9f5fa;fill-opacity:1;stroke:#000000;stroke-width:1.73144;stroke-linejoin:bevel;stroke-dasharray:none"
       id="circle7"
       cx="54.365753"
       cy="57.813847"
       r="6.2507982" /><circle
       style="fill:#000000;stroke-width:0;stroke-linejoin:bevel"
       id="path1"
       cx="54.365753"
       cy="57.813847"
       r="3.0597134" /><circle
       style="fill:#000000;stroke-width:0;stroke-linejoin:bevel"
       id="circle1"
       cx="76.334686"
       cy="56.91523"
       r="1.9916537" /><circle
       style="fill:none;stroke:#000000;stroke-width:0;stroke-linejoin:bevel"
       id="circle2"
       cx="54.11858"
       cy="57.937363"
       r="8.3140345" /><path
       style="fill:#e6802d;fill-opacity:1;stroke:#000000;stroke-width:1.9224;stroke-linecap:round;stroke-linejoin:round;stroke-dasharray:none"
       d="M 55.313801,93.684048 V 105.02836 H 76.381747 V 93.684048 l -3.447274,-7.324345 -15.729967,1.652191 -1.890705,5.672154"
       id="path13"
       sodipodi:nodetypes="ccccccc" /><circle
       style="fill:#e9f5fa;fill-opacity:1;stroke:#000000;stroke-width:2.30295;stroke-linejoin:bevel;stroke-dasharray:none"
       id="circle3"
       cx="64.644913"
       cy="82.592987"
       r="8.3140345" /><circle
       style="fill:#000000;stroke-width:0;stroke-linejoin:bevel"
       id="circle6"
       cx="64.644913"
       cy="82.592987"
       r="4.5043874" /><g
       id="g61"
       transform="matrix(9.7583769,0,0,9.7583769,-821.21861,-2145.6646)"><rect
         style="fill:#0e4a6b;fill-opacity:1;stroke:none;stroke-width:0;stroke-linejoin:bevel;stroke-dasharray:none;stroke-opacity:1"
         id="rect60"
         width="1.8495543"
         height="1.0170292"
         x="228.05943"
         y="79.830437"
         transform="rotate(47.391693)"
         ry="0.2" /><rect
         style="fill:#0e4a6b;fill-opacity:1;stroke:none;stroke-width:0;stroke-linejoin:bevel;stroke-dasharray:none;stroke-opacity:1"
         id="rect61"
         width="1.8495543"
         height="1.0170292"
         x="79.830452"
         y="-229.49272"
         transform="rotate(137.39169)" /></g><g
       id="g63"
       transform="matrix(-9.7583769,0,0,9.7583769,955.01562,-2145.6646)"><rect
         style="fill:#0e4a6b;fill-opacity:1;stroke:none;stroke-width:0;stroke-linejoin:bevel;stroke-dasharray:none;stroke-opacity:1"
         id="rect62"
         width="1.8495543"
         height="1.0170292"
         x="228.05943"
         y="79.830437"
         transform="rotate(47.391693)"
         ry="0.2" /><rect
         style="fill:#0e4a6b;fill-opacity:1;stroke:none;stroke-width:0;stroke-linejoin:bevel;stroke-dasharray:none;stroke-opacity:1"
         id="rect63"
         width="1.8495543"
         height="1.0170292"
         x="79.830452"
         y="-229.49272"
         transform="rotate(137.39169)" /></g><rect
       style="fill:#0e4a6b;fill-opacity:1;stroke:none;stroke-width:0;stroke-linejoin:bevel;stroke-dasharray:none;stroke-opacity:1"
       id="rect64"
       width="23.054913"
       height="12.677388"
       x="55.790806"
       y="0.43526828"
       transform="rotate(-0.32430581)"
       ry="1.9516754" /><rect
       style="fill:#0e4a6b;fill-opacity:1;stroke:none;stroke-width:0;stroke-linejoin:bevel;stroke-dasharray:none;stroke-opacity:1"
       id="rect65"
       width="23.054913"
       height="12.677388"
       x="0.43538097"
       y="-73.656906"
       transform="rotate(89.675691)" /></g></svg>
