<?xml version="1.0" encoding="UTF-8" standalone="no"?>
<!-- Created with Inkscape (http://www.inkscape.org/) -->

<svg
   width="512"
   height="512"
   viewBox="0 0 135.46667 135.46666"
   version="1.1"
   id="svg1"
   xml:space="preserve"
   inkscape:version="1.4 (86a8ad7, 2024-10-11)"
   sodipodi:docname="JobShopLabLogo.svg"
   xmlns:inkscape="http://www.inkscape.org/namespaces/inkscape"
   xmlns:sodipodi="http://sodipodi.sourceforge.net/DTD/sodipodi-0.dtd"
   xmlns="http://www.w3.org/2000/svg"
   xmlns:svg="http://www.w3.org/2000/svg"><sodipodi:namedview
     id="namedview1"
     pagecolor="#ffffff"
     bordercolor="#000000"
     borderopacity="0.25"
     inkscape:showpageshadow="2"
     inkscape:pageopacity="0.0"
     inkscape:pagecheckerboard="0"
     inkscape:deskcolor="#d1d1d1"
     inkscape:document-units="mm"
     inkscape:zoom="1.0267829"
     inkscape:cx="254.19199"
     inkscape:cy="201.11359"
     inkscape:window-width="2560"
     inkscape:window-height="1017"
     inkscape:window-x="-8"
     inkscape:window-y="-8"
     inkscape:window-maximized="1"
     inkscape:current-layer="layer1" /><defs
     id="defs1" /><g
     inkscape:label="Ebene 1"
     inkscape:groupmode="layer"
     id="layer1"><g
       id="g1"
       transform="matrix(9.7583769,0,0,9.7583769,-151.58071,-143.14607)"><path
         class="cls-109"
         d="m 20.104137,27.988897 c 1.56368,0.47096 3.16177,0.5424 4.70958,-0.0344 1.2065,0.0582 2.45269,-0.005 3.62479,0.28839 0.005,0.0397 -0.6985,0.14552 -0.762,0.15346 -1.73037,0.20373 -8.62012,0.20902 -10.33198,0 -0.27517,-0.0344 -1.04246,-0.12965 -0.30427,-0.26988 0.44979,-0.0847 2.62467,-0.1905 3.06652,-0.13493 z"
         id="path44"
         style="fill:#dcddde;stroke-width:0.264583"
         inkscape:export-filename="JobShopLabLogo"
         inkscape:export-xdpi="96"
         inkscape:export-ydpi="96" /><ellipse
         style="fill:#e9f5fa;fill-opacity:1;stroke:#0e4a6b;stroke-width:0.7;stroke-linejoin:bevel;stroke-dasharray:none;stroke-opacity:1"
         id="ellipse44"
         cx="22.388891"
         cy="22.563658"
         rx="5.5285478"
         ry="5.5285454" /><circle
         style="fill:#e9f5fa;fill-opacity:1;stroke:#289fb2;stroke-width:0.4;stroke-linejoin:bevel;stroke-dasharray:none;stroke-opacity:1"
         id="circle44"
         cx="22.388891"
         cy="22.563658"
         r="4.6407723" /><g
         id="g57"
         transform="matrix(0.86019907,0,0,0.86019907,-68.914609,-188.57992)"><path
           class="cls-122"
           d="m 106.14888,240.56438 c 0.24077,-0.037 0.23813,0.93134 -0.0688,0.77788 -0.0609,-0.0291 -0.12435,-0.74877 0.0688,-0.77788 z"
           id="path46"
           style="fill:#0c3653;stroke-width:0.264583" /><path
           class="cls-122"
           d="m 102.38651,247.61024 c 0.57414,-0.10848 -0.12436,0.47889 -0.30427,0.508 -0.55563,0.0873 0.11641,-0.47361 0.30427,-0.508 z"
           id="path47"
           style="fill:#0c3653;stroke-width:0.264583" /><path
           class="cls-122"
           d="m 109.80542,247.61024 c 0.12171,-0.0423 0.64823,0.28575 0.66146,0.32279 0.15611,0.46831 -1.01864,-0.19579 -0.66146,-0.32279 z"
           id="path48"
           style="fill:#0c3653;stroke-width:0.264583" /><path
           class="cls-122"
           d="m 104.01369,249.16863 c 0.34925,-0.0556 -0.0979,0.78846 -0.30427,0.71173 -0.19843,-0.0741 0.24342,-0.70114 0.30427,-0.71173 z"
           id="path49"
           style="fill:#0c3653;stroke-width:0.264583" /><path
           class="cls-122"
           d="m 108.24703,249.16863 c 0.19579,-0.0582 0.67998,0.88106 0.23812,0.71173 -0.037,-0.0159 -0.43921,-0.65087 -0.23812,-0.71173 z"
           id="path50"
           style="fill:#0c3653;stroke-width:0.264583" /><path
           class="cls-7"
           d="m 101.30436,245.44065 c 0.39952,-0.15346 1.06098,0.17198 0.57679,0.26988 -0.16139,0.0317 -1.04775,-0.0926 -0.57679,-0.26988 z"
           id="path51"
           style="fill:#152740;stroke-width:0.264583" /><path
           class="cls-122"
           d="m 110.28167,243.03559 c 0.61913,-0.0741 -0.40746,0.70379 -0.52387,0.45773 -0.0741,-0.15346 0.48948,-0.45244 0.52387,-0.45773 z"
           id="path52"
           style="fill:#0c3653;stroke-width:0.264583" /><path
           class="cls-122"
           d="m 101.9473,243.03559 c 0.17991,-0.0609 1.03187,0.58473 0.43921,0.508 -0.0397,-0.005 -0.75671,-0.40217 -0.43921,-0.508 z"
           id="path53"
           style="fill:#0c3653;stroke-width:0.264583" /><path
           class="cls-122"
           d="m 103.77557,241.24172 c 0.0714,0.005 0.59531,0.77258 0.23812,0.74612 -0.0767,-0.005 -0.59531,-0.77258 -0.23812,-0.74612 z"
           id="path54"
           style="fill:#0c3653;stroke-width:0.264583" /><path
           class="cls-7"
           d="m 110.38221,245.44065 c 0.0397,-0.0185 0.81492,-0.0952 0.72761,0.18521 -0.0503,0.16404 -1.20121,0.0238 -0.72761,-0.18521 z"
           id="path55"
           style="fill:#152740;stroke-width:0.264583" /><path
           class="cls-122"
           d="m 108.51955,241.24172 c 0.39158,-0.09 -0.082,0.73554 -0.23813,0.71172 -0.25664,-0.0397 0.19579,-0.70114 0.23813,-0.71172 z"
           id="path56"
           style="fill:#0c3653;stroke-width:0.264583" /><path
           class="cls-122"
           d="m 106.14888,249.56021 c 0.24077,-0.037 0.23813,0.93134 -0.0688,0.77788 -0.0609,-0.0291 -0.12435,-0.74877 0.0688,-0.77788 z"
           id="path57"
           style="fill:#0c3653;stroke-width:0.264583" /></g><path
         style="fill:#e6802d;fill-opacity:1;stroke:#000000;stroke-width:0.196665;stroke-linecap:round;stroke-linejoin:round;stroke-dasharray:none"
         d="m 20.954566,21.156857 0.368089,1.59518 c 0,0 1.048144,-0.40313 1.039186,-0.43897 -0.009,-0.0358 -0.833932,-1.32643 -0.833932,-1.32643 z"
         id="path11"
         sodipodi:nodetypes="ccscc" /><path
         style="fill:#e6802d;fill-opacity:1;stroke:#000000;stroke-width:0.196665;stroke-linecap:round;stroke-linejoin:round;stroke-dasharray:none"
         d="m 21.72997,20.784757 1.17475,-0.0358 -0.009,-0.48376 -1.272749,-0.0448 c 0.121132,0.1708 0.146274,0.35981 0.106952,0.56439 z"
         id="path12"
         sodipodi:nodetypes="ccccc" /><path
         style="fill:none;stroke:#000000;stroke-width:0.176192;stroke-linecap:round;stroke-linejoin:round;stroke-dasharray:none"
         d="m 23.335984,20.995057 0.32503,1.03386 0.722862,0.13483 -0.3256,-0.0724 -0.215657,-0.81723 0.198632,-0.17026 0.869669,0.21989 c 0,0 0.114249,0.4836 0.09722,0.33605 -0.01702,-0.14756 -0.217772,-0.74322 -0.217772,-0.74322 l -0.954971,-0.34148 c -0.07557,0.26263 -0.26383,0.3704 -0.499415,0.41996 z"
         id="path9"
         sodipodi:nodetypes="cccccccscccc" /><path
         style="fill:none;stroke:#000000;stroke-width:0.176192;stroke-linecap:round;stroke-linejoin:round;stroke-dasharray:none"
         d="m 23.434007,21.296817 c 0.07017,0.14599 0.832101,-0.42836 0.81155,-0.54482"
         id="path10"
         sodipodi:nodetypes="cc" /><circle
         style="fill:#e9f5fa;fill-opacity:1;stroke:#000000;stroke-width:0.134929;stroke-linecap:round;stroke-linejoin:round;stroke-dasharray:none"
         id="circle9"
         cx="23.355871"
         cy="20.501493"
         r="0.48711753" /><circle
         style="fill:#e9f5fa;fill-opacity:1;stroke:#000000;stroke-width:0.177431;stroke-linejoin:bevel;stroke-dasharray:none"
         id="circle7"
         cx="21.104582"
         cy="20.59358"
         r="0.64055717" /><circle
         style="fill:#000000;stroke-width:0;stroke-linejoin:bevel"
         id="path1"
         cx="21.104582"
         cy="20.59358"
         r="0.31354737" /><circle
         style="fill:#000000;stroke-width:0;stroke-linejoin:bevel"
         id="circle1"
         cx="23.355871"
         cy="20.501493"
         r="0.20409682" /><circle
         style="fill:none;stroke:#000000;stroke-width:0;stroke-linejoin:bevel"
         id="circle2"
         cx="21.079252"
         cy="20.606237"
         r="0.85198951" /><path
         style="fill:#e6802d;fill-opacity:1;stroke:#000000;stroke-width:0.197;stroke-linecap:round;stroke-linejoin:round;stroke-dasharray:none"
         d="m 21.201734,24.269417 v 1.16252 h 2.15896 v -1.16252 l -0.353263,-0.75057 -1.611945,0.16931 -0.193752,0.58126"
         id="path13"
         sodipodi:nodetypes="ccccccc" /><circle
         style="fill:#e9f5fa;fill-opacity:1;stroke:#000000;stroke-width:0.235997;stroke-linejoin:bevel;stroke-dasharray:none"
         id="circle3"
         cx="22.157949"
         cy="23.132849"
         r="0.85198951" /><circle
         style="fill:#000000;stroke-width:0;stroke-linejoin:bevel"
         id="circle6"
         cx="22.157949"
         cy="23.132849"
         r="0.46159184" /><g
         id="g61"
         transform="translate(-68.621852,-205.21021)"><rect
           style="fill:#0e4a6b;fill-opacity:1;stroke:none;stroke-width:0;stroke-linejoin:bevel;stroke-dasharray:none;stroke-opacity:1"
           id="rect60"
           width="1.8495543"
           height="1.0170292"
           x="228.05943"
           y="79.830437"
           transform="rotate(47.391693)"
           ry="0.2" /><rect
           style="fill:#0e4a6b;fill-opacity:1;stroke:none;stroke-width:0;stroke-linejoin:bevel;stroke-dasharray:none;stroke-opacity:1"
           id="rect61"
           width="1.8495543"
           height="1.0170292"
           x="79.830452"
           y="-229.49272"
           transform="rotate(137.39169)" /></g><g
         id="g63"
         transform="matrix(-1,0,0,1,113.39963,-205.21021)"><rect
           style="fill:#0e4a6b;fill-opacity:1;stroke:none;stroke-width:0;stroke-linejoin:bevel;stroke-dasharray:none;stroke-opacity:1"
           id="rect62"
           width="1.8495543"
           height="1.0170292"
           x="228.05943"
           y="79.830437"
           transform="rotate(47.391693)"
           ry="0.2" /><rect
           style="fill:#0e4a6b;fill-opacity:1;stroke:none;stroke-width:0;stroke-linejoin:bevel;stroke-dasharray:none;stroke-opacity:1"
           id="rect63"
           width="1.8495543"
           height="1.0170292"
           x="79.830452"
           y="-229.49272"
           transform="rotate(137.39169)" /></g><rect
         style="fill:#0e4a6b;fill-opacity:1;stroke:none;stroke-width:0;stroke-linejoin:bevel;stroke-dasharray:none;stroke-opacity:1"
         id="rect64"
         width="2.3625765"
         height="1.2991288"
         x="21.167337"
         y="14.801336"
         transform="rotate(-0.32430578)"
         ry="0.2" /><rect
         style="fill:#0e4a6b;fill-opacity:1;stroke:none;stroke-width:0;stroke-linejoin:bevel;stroke-dasharray:none;stroke-opacity:1"
         id="rect65"
         width="2.3625765"
         height="1.2991288"
         x="14.801349"
         y="-22.998184"
         transform="rotate(89.675691)" /><path
         class="cls-28"
         d="m 21.432797,14.782697 c 0,0 0.0634,-0.003 0.0731,0.01 0.0292,0.0455 0.0324,1.03822 -0.01,1.07071 -0.007,0.005 -0.0634,0.003 -0.0731,-0.01 -0.0292,-0.0455 -0.0325,-1.03821 0.01,-1.07071 z"
         id="path65"
         style="fill:#289fb2;fill-opacity:1;stroke-width:0.162474" /><path
         class="cls-28"
         d="m 21.894747,14.782697 c 0,0 0.0634,-0.003 0.0731,0.01 0.0292,0.0455 0.0324,1.03822 -0.01,1.07071 -0.007,0.005 -0.0634,0.003 -0.0731,-0.01 -0.0292,-0.0455 -0.0325,-1.03821 0.01,-1.07071 z"
         id="path66"
         style="fill:#289fb2;fill-opacity:1;stroke-width:0.162474" /><path
         class="cls-28"
         d="m 22.587667,14.782697 c 0,0 0.0634,-0.003 0.0731,0.01 0.0292,0.0455 0.0324,1.03822 -0.01,1.07071 -0.007,0.005 -0.0634,0.003 -0.0731,-0.01 -0.0292,-0.0455 -0.0325,-1.03821 0.01,-1.07071 z"
         id="path67"
         style="fill:#289fb2;fill-opacity:1;stroke-width:0.162474" /><path
         class="cls-28"
         d="m 22.818637,14.782697 c 0,0 0.0634,-0.003 0.0731,0.01 0.0292,0.0455 0.0324,1.03822 -0.01,1.07071 -0.007,0.005 -0.0634,0.003 -0.0731,-0.01 -0.0292,-0.0455 -0.0325,-1.03821 0.01,-1.07071 z"
         id="path68"
         style="fill:#289fb2;fill-opacity:1;stroke-width:0.162474" /><path
         class="cls-28"
         d="m 23.049617,14.782697 c 0,0 0.0634,-0.003 0.0731,0.01 0.0292,0.0455 0.0324,1.03822 -0.01,1.07071 -0.007,0.005 -0.0634,0.003 -0.0731,-0.01 -0.0292,-0.0455 -0.0325,-1.03821 0.01,-1.07071 z"
         id="path69"
         style="fill:#289fb2;fill-opacity:1;stroke-width:0.162474" /><path
         class="cls-28"
         d="m 23.280587,14.782697 c 0,0 0.0634,-0.003 0.0731,0.01 0.0292,0.0455 0.0324,1.03822 -0.01,1.07071 -0.007,0.005 -0.0634,0.003 -0.0731,-0.01 -0.0292,-0.0455 -0.0325,-1.03821 0.01,-1.07071 z"
         id="path70"
         style="fill:#289fb2;fill-opacity:1;stroke-width:0.162474" /><path
         class="cls-28"
         d="m 22.125717,14.782697 c 0,0 0.0634,-0.003 0.0731,0.01 0.0292,0.0455 0.0324,1.03822 -0.01,1.07071 -0.007,0.005 -0.0634,0.003 -0.0731,-0.01 -0.0292,-0.0455 -0.0325,-1.03821 0.01,-1.07071 z"
         id="path71"
         style="fill:#289fb2;fill-opacity:1;stroke-width:0.162474" /><path
         class="cls-28"
         d="m 21.663767,14.782697 c 0,0 0.0634,-0.003 0.0731,0.01 0.0292,0.0455 0.0324,1.03822 -0.01,1.07071 -0.007,0.005 -0.0634,0.003 -0.0731,-0.01 -0.0292,-0.0455 -0.0325,-1.03821 0.01,-1.07071 z"
         id="path72"
         style="fill:#289fb2;fill-opacity:1;stroke-width:0.162474" /><path
         class="cls-28"
         d="m 22.356697,14.782697 c 0,0 0.0634,-0.003 0.0731,0.01 0.0292,0.0455 0.0324,1.03822 -0.01,1.07071 -0.007,0.005 -0.0634,0.003 -0.0731,-0.01 -0.0292,-0.0455 -0.0325,-1.03821 0.01,-1.07071 z"
         id="path73"
         style="fill:#289fb2;fill-opacity:1;stroke-width:0.162474" /><circle
         style="fill:#000000;stroke-width:0;stroke-linejoin:bevel"
         id="circle73"
         cx="21.675573"
         cy="24.889807"
         r="0.11583954" /><circle
         style="fill:#000000;stroke-width:0;stroke-linejoin:bevel"
         id="circle74"
         cx="22.259207"
         cy="24.889807"
         r="0.11583954" /><circle
         style="fill:#000000;stroke-width:0;stroke-linejoin:bevel"
         id="circle75"
         cx="22.842848"
         cy="24.889807"
         r="0.11583954" /></g></g></svg>
