<?xml version="1.0" encoding="utf-8" standalone="no"?>
<!DOCTYPE svg PUBLIC "-//W3C//DTD SVG 1.1//EN"
  "http://www.w3.org/Graphics/SVG/1.1/DTD/svg11.dtd">
<svg xmlns:xlink="http://www.w3.org/1999/xlink" width="225.167473pt" height="154.869432pt" viewBox="0 0 225.167473 154.869432" xmlns="http://www.w3.org/2000/svg" version="1.1">
 <metadata>
  <rdf:RDF xmlns:dc="http://purl.org/dc/elements/1.1/" xmlns:cc="http://creativecommons.org/ns#" xmlns:rdf="http://www.w3.org/1999/02/22-rdf-syntax-ns#">
   <cc:Work>
    <dc:type rdf:resource="http://purl.org/dc/dcmitype/StillImage"/>
    <dc:date>2025-03-13T13:49:22.385911</dc:date>
    <dc:format>image/svg+xml</dc:format>
    <dc:creator>
     <cc:Agent>
      <dc:title>Matplotlib v3.10.0, https://matplotlib.org/</dc:title>
     </cc:Agent>
    </dc:creator>
   </cc:Work>
  </rdf:RDF>
 </metadata>
 <defs>
  <style type="text/css">*{stroke-linejoin: round; stroke-linecap: butt}</style>
 </defs>
 <g id="figure_1">
  <g id="patch_1">
   <path d="M 0 154.869432 
L 225.167473 154.869432 
L 225.167473 0 
L 0 0 
z
" style="fill: #ffffff"/>
  </g>
  <g id="axes_1">
   <g id="patch_2">
    <path d="M 27.535937 101.801472 
L 217.967473 101.801472 
L 217.967473 7.2 
L 27.535937 7.2 
z
" style="fill: #ffffff"/>
   </g>
   <g id="patch_3">
    <path d="M 36.191916 114.387261 
L 38.875941 114.387261 
L 38.875941 85.059386 
L 36.191916 85.059386 
z
" clip-path="url(#p7cc57df671)"/>
   </g>
   <g id="patch_4">
    <path d="M 42.901978 114.387261 
L 45.586002 114.387261 
L 45.586002 89.228339 
L 42.901978 89.228339 
z
" clip-path="url(#p7cc57df671)"/>
   </g>
   <g id="patch_5">
    <path d="M 49.612039 114.387261 
L 52.296063 114.387261 
L 52.296063 65.55969 
L 49.612039 65.55969 
z
" clip-path="url(#p7cc57df671)"/>
   </g>
   <g id="patch_6">
    <path d="M 56.3221 114.387261 
L 59.006124 114.387261 
L 59.006124 49.134569 
L 56.3221 49.134569 
z
" clip-path="url(#p7cc57df671)"/>
   </g>
   <g id="patch_7">
    <path d="M 63.032161 114.387261 
L 65.716185 114.387261 
L 65.716185 68.662672 
L 63.032161 68.662672 
z
" clip-path="url(#p7cc57df671)"/>
   </g>
   <g id="patch_8">
    <path d="M 69.742222 114.387261 
L 72.426247 114.387261 
L 72.426247 43.461057 
L 69.742222 43.461057 
z
" clip-path="url(#p7cc57df671)"/>
   </g>
   <g id="patch_9">
    <path d="M 76.452283 114.387261 
L 79.136308 114.387261 
L 79.136308 66.557292 
L 76.452283 66.557292 
z
" clip-path="url(#p7cc57df671)"/>
   </g>
   <g id="patch_10">
    <path d="M 83.162344 114.387261 
L 85.846369 114.387261 
L 85.846369 85.79521 
L 83.162344 85.79521 
z
" clip-path="url(#p7cc57df671)"/>
   </g>
   <g id="patch_11">
    <path d="M 89.872406 114.387261 
L 92.55643 114.387261 
L 92.55643 67.610213 
L 89.872406 67.610213 
z
" clip-path="url(#p7cc57df671)"/>
   </g>
   <g id="patch_12">
    <path d="M 96.582467 114.387261 
L 99.266491 114.387261 
L 99.266491 70.706424 
L 96.582467 70.706424 
z
" clip-path="url(#p7cc57df671)"/>
   </g>
   <g id="patch_13">
    <path d="M 103.292528 114.387261 
L 105.976552 114.387261 
L 105.976552 70.302483 
L 103.292528 70.302483 
z
" clip-path="url(#p7cc57df671)"/>
   </g>
   <g id="patch_14">
    <path d="M 110.002589 114.387261 
L 112.686613 114.387261 
L 112.686613 73.268697 
L 110.002589 73.268697 
z
" clip-path="url(#p7cc57df671)"/>
   </g>
   <g id="patch_15">
    <path d="M 116.71265 114.387261 
L 119.396675 114.387261 
L 119.396675 70.400311 
L 116.71265 70.400311 
z
" clip-path="url(#p7cc57df671)"/>
   </g>
   <g id="patch_16">
    <path d="M 123.422711 114.387261 
L 126.106736 114.387261 
L 126.106736 74.763213 
L 123.422711 74.763213 
z
" clip-path="url(#p7cc57df671)"/>
   </g>
   <g id="patch_17">
    <path d="M 130.132772 114.387261 
L 132.816797 114.387261 
L 132.816797 66.993059 
L 130.132772 66.993059 
z
" clip-path="url(#p7cc57df671)"/>
   </g>
   <g id="patch_18">
    <path d="M 136.842834 114.387261 
L 139.526858 114.387261 
L 139.526858 88.939311 
L 136.842834 88.939311 
z
" clip-path="url(#p7cc57df671)"/>
   </g>
   <g id="patch_19">
    <path d="M 143.552895 114.387261 
L 146.236919 114.387261 
L 146.236919 94.178019 
L 143.552895 94.178019 
z
" clip-path="url(#p7cc57df671)"/>
   </g>
   <g id="patch_20">
    <path d="M 150.262956 114.387261 
L 152.94698 114.387261 
L 152.94698 82.921047 
L 150.262956 82.921047 
z
" clip-path="url(#p7cc57df671)"/>
   </g>
   <g id="patch_21">
    <path d="M 156.973017 114.387261 
L 159.657041 114.387261 
L 159.657041 47.347525 
L 156.973017 47.347525 
z
" clip-path="url(#p7cc57df671)"/>
   </g>
   <g id="patch_22">
    <path d="M 163.683078 114.387261 
L 166.367103 114.387261 
L 166.367103 74.409974 
L 163.683078 74.409974 
z
" clip-path="url(#p7cc57df671)"/>
   </g>
   <g id="patch_23">
    <path d="M 170.393139 114.387261 
L 173.077164 114.387261 
L 173.077164 101.139062 
L 170.393139 101.139062 
z
" clip-path="url(#p7cc57df671)"/>
   </g>
   <g id="patch_24">
    <path d="M 177.1032 114.387261 
L 179.787225 114.387261 
L 179.787225 97.698596 
L 177.1032 97.698596 
z
" clip-path="url(#p7cc57df671)"/>
   </g>
   <g id="patch_25">
    <path d="M 183.813262 114.387261 
L 186.497286 114.387261 
L 186.497286 75.697224 
L 183.813262 75.697224 
z
" clip-path="url(#p7cc57df671)"/>
   </g>
   <g id="patch_26">
    <path d="M 190.523323 114.387261 
L 193.207347 114.387261 
L 193.207347 85.191992 
L 190.523323 85.191992 
z
" clip-path="url(#p7cc57df671)"/>
   </g>
   <g id="patch_27">
    <path d="M 197.233384 114.387261 
L 199.917408 114.387261 
L 199.917408 90.509202 
L 197.233384 90.509202 
z
" clip-path="url(#p7cc57df671)"/>
   </g>
   <g id="patch_28">
    <path d="M 203.943445 114.387261 
L 206.627469 114.387261 
L 206.627469 55.741567 
L 203.943445 55.741567 
z
" clip-path="url(#p7cc57df671)"/>
   </g>
   <g id="patch_29">
    <path d="M 38.875941 114.387261 
L 41.559965 114.387261 
L 41.559965 85.059386 
L 38.875941 85.059386 
z
" clip-path="url(#p7cc57df671)" style="fill: #ffffff; stroke: #000000; stroke-linejoin: miter"/>
   </g>
   <g id="patch_30">
    <path d="M 45.586002 114.387261 
L 48.270026 114.387261 
L 48.270026 65.925569 
L 45.586002 65.925569 
z
" clip-path="url(#p7cc57df671)" style="fill: #ffffff; stroke: #000000; stroke-linejoin: miter"/>
   </g>
   <g id="patch_31">
    <path d="M 52.296063 114.387261 
L 54.980088 114.387261 
L 54.980088 12.304155 
L 52.296063 12.304155 
z
" clip-path="url(#p7cc57df671)" style="fill: #ffffff; stroke: #000000; stroke-linejoin: miter"/>
   </g>
   <g id="patch_32">
    <path d="M 59.006124 114.387261 
L 61.690149 114.387261 
L 61.690149 55.531331 
L 59.006124 55.531331 
z
" clip-path="url(#p7cc57df671)" style="fill: #ffffff; stroke: #000000; stroke-linejoin: miter"/>
   </g>
   <g id="patch_33">
    <path d="M 65.716185 114.387261 
L 68.40021 114.387261 
L 68.40021 36.437792 
L 65.716185 36.437792 
z
" clip-path="url(#p7cc57df671)" style="fill: #ffffff; stroke: #000000; stroke-linejoin: miter"/>
   </g>
   <g id="patch_34">
    <path d="M 72.426247 114.387261 
L 75.110271 114.387261 
L 75.110271 43.461057 
L 72.426247 43.461057 
z
" clip-path="url(#p7cc57df671)" style="fill: #ffffff; stroke: #000000; stroke-linejoin: miter"/>
   </g>
   <g id="patch_35">
    <path d="M 79.136308 114.387261 
L 81.820332 114.387261 
L 81.820332 46.361447 
L 79.136308 46.361447 
z
" clip-path="url(#p7cc57df671)" style="fill: #ffffff; stroke: #000000; stroke-linejoin: miter"/>
   </g>
   <g id="patch_36">
    <path d="M 85.846369 114.387261 
L 88.530393 114.387261 
L 88.530393 62.88337 
L 85.846369 62.88337 
z
" clip-path="url(#p7cc57df671)" style="fill: #ffffff; stroke: #000000; stroke-linejoin: miter"/>
   </g>
   <g id="patch_37">
    <path d="M 92.55643 114.387261 
L 95.240454 114.387261 
L 95.240454 71.758112 
L 92.55643 71.758112 
z
" clip-path="url(#p7cc57df671)" style="fill: #ffffff; stroke: #000000; stroke-linejoin: miter"/>
   </g>
   <g id="patch_38">
    <path d="M 99.266491 114.387261 
L 101.950516 114.387261 
L 101.950516 74.196397 
L 99.266491 74.196397 
z
" clip-path="url(#p7cc57df671)" style="fill: #ffffff; stroke: #000000; stroke-linejoin: miter"/>
   </g>
   <g id="patch_39">
    <path d="M 105.976552 114.387261 
L 108.660577 114.387261 
L 108.660577 58.516346 
L 105.976552 58.516346 
z
" clip-path="url(#p7cc57df671)" style="fill: #ffffff; stroke: #000000; stroke-linejoin: miter"/>
   </g>
   <g id="patch_40">
    <path d="M 112.686613 114.387261 
L 115.370638 114.387261 
L 115.370638 77.379241 
L 112.686613 77.379241 
z
" clip-path="url(#p7cc57df671)" style="fill: #ffffff; stroke: #000000; stroke-linejoin: miter"/>
   </g>
   <g id="patch_41">
    <path d="M 119.396675 114.387261 
L 122.080699 114.387261 
L 122.080699 68.469003 
L 119.396675 68.469003 
z
" clip-path="url(#p7cc57df671)" style="fill: #ffffff; stroke: #000000; stroke-linejoin: miter"/>
   </g>
   <g id="patch_42">
    <path d="M 126.106736 114.387261 
L 128.79076 114.387261 
L 128.79076 47.085536 
L 126.106736 47.085536 
z
" clip-path="url(#p7cc57df671)" style="fill: #ffffff; stroke: #000000; stroke-linejoin: miter"/>
   </g>
   <g id="patch_43">
    <path d="M 132.816797 114.387261 
L 135.500821 114.387261 
L 135.500821 79.915646 
L 132.816797 79.915646 
z
" clip-path="url(#p7cc57df671)" style="fill: #ffffff; stroke: #000000; stroke-linejoin: miter"/>
   </g>
   <g id="patch_44">
    <path d="M 139.526858 114.387261 
L 142.210882 114.387261 
L 142.210882 79.799513 
L 139.526858 79.799513 
z
" clip-path="url(#p7cc57df671)" style="fill: #ffffff; stroke: #000000; stroke-linejoin: miter"/>
   </g>
   <g id="patch_45">
    <path d="M 146.236919 114.387261 
L 148.920944 114.387261 
L 148.920944 76.444043 
L 146.236919 76.444043 
z
" clip-path="url(#p7cc57df671)" style="fill: #ffffff; stroke: #000000; stroke-linejoin: miter"/>
   </g>
   <g id="patch_46">
    <path d="M 152.94698 114.387261 
L 155.631005 114.387261 
L 155.631005 38.445094 
L 152.94698 38.445094 
z
" clip-path="url(#p7cc57df671)" style="fill: #ffffff; stroke: #000000; stroke-linejoin: miter"/>
   </g>
   <g id="patch_47">
    <path d="M 159.657041 114.387261 
L 162.341066 114.387261 
L 162.341066 47.347525 
L 159.657041 47.347525 
z
" clip-path="url(#p7cc57df671)" style="fill: #ffffff; stroke: #000000; stroke-linejoin: miter"/>
   </g>
   <g id="patch_48">
    <path d="M 166.367103 114.387261 
L 169.051127 114.387261 
L 169.051127 79.39962 
L 166.367103 79.39962 
z
" clip-path="url(#p7cc57df671)" style="fill: #ffffff; stroke: #000000; stroke-linejoin: miter"/>
   </g>
   <g id="patch_49">
    <path d="M 173.077164 114.387261 
L 175.761188 114.387261 
L 175.761188 48.728528 
L 173.077164 48.728528 
z
" clip-path="url(#p7cc57df671)" style="fill: #ffffff; stroke: #000000; stroke-linejoin: miter"/>
   </g>
   <g id="patch_50">
    <path d="M 179.787225 114.387261 
L 182.471249 114.387261 
L 182.471249 66.286763 
L 179.787225 66.286763 
z
" clip-path="url(#p7cc57df671)" style="fill: #ffffff; stroke: #000000; stroke-linejoin: miter"/>
   </g>
   <g id="patch_51">
    <path d="M 186.497286 114.387261 
L 189.18131 114.387261 
L 189.18131 64.17841 
L 186.497286 64.17841 
z
" clip-path="url(#p7cc57df671)" style="fill: #ffffff; stroke: #000000; stroke-linejoin: miter"/>
   </g>
   <g id="patch_52">
    <path d="M 193.207347 114.387261 
L 195.891372 114.387261 
L 195.891372 30.858823 
L 193.207347 30.858823 
z
" clip-path="url(#p7cc57df671)" style="fill: #ffffff; stroke: #000000; stroke-linejoin: miter"/>
   </g>
   <g id="patch_53">
    <path d="M 199.917408 114.387261 
L 202.601433 114.387261 
L 202.601433 81.421568 
L 199.917408 81.421568 
z
" clip-path="url(#p7cc57df671)" style="fill: #ffffff; stroke: #000000; stroke-linejoin: miter"/>
   </g>
   <g id="patch_54">
    <path d="M 206.627469 114.387261 
L 209.311494 114.387261 
L 209.311494 56.282012 
L 206.627469 56.282012 
z
" clip-path="url(#p7cc57df671)" style="fill: #ffffff; stroke: #000000; stroke-linejoin: miter"/>
   </g>
   <g id="matplotlib.axis_1">
    <g id="xtick_1">
     <g id="line2d_1">
      <defs>
       <path id="ma2f3d95ff9" d="M 0 0 
L 0 3.5 
" style="stroke: #000000; stroke-width: 0.8"/>
      </defs>
      <g>
       <use xlink:href="#ma2f3d95ff9" x="38.875941" y="101.801472" style="stroke: #000000; stroke-width: 0.8"/>
      </g>
     </g>
     <g id="text_1">
      <!-- ft06-t -->
      <g transform="translate(36.63184 122.611524) rotate(-60) scale(0.04998 -0.04998)">
       <defs>
        <path id="DejaVuSans-66" d="M 2375 4863 
L 2375 4384 
L 1825 4384 
Q 1516 4384 1395 4259 
Q 1275 4134 1275 3809 
L 1275 3500 
L 2222 3500 
L 2222 3053 
L 1275 3053 
L 1275 0 
L 697 0 
L 697 3053 
L 147 3053 
L 147 3500 
L 697 3500 
L 697 3744 
Q 697 4328 969 4595 
Q 1241 4863 1831 4863 
L 2375 4863 
z
" transform="scale(0.015625)"/>
        <path id="DejaVuSans-74" d="M 1172 4494 
L 1172 3500 
L 2356 3500 
L 2356 3053 
L 1172 3053 
L 1172 1153 
Q 1172 725 1289 603 
Q 1406 481 1766 481 
L 2356 481 
L 2356 0 
L 1766 0 
Q 1100 0 847 248 
Q 594 497 594 1153 
L 594 3053 
L 172 3053 
L 172 3500 
L 594 3500 
L 594 4494 
L 1172 4494 
z
" transform="scale(0.015625)"/>
        <path id="DejaVuSans-30" d="M 2034 4250 
Q 1547 4250 1301 3770 
Q 1056 3291 1056 2328 
Q 1056 1369 1301 889 
Q 1547 409 2034 409 
Q 2525 409 2770 889 
Q 3016 1369 3016 2328 
Q 3016 3291 2770 3770 
Q 2525 4250 2034 4250 
z
M 2034 4750 
Q 2819 4750 3233 4129 
Q 3647 3509 3647 2328 
Q 3647 1150 3233 529 
Q 2819 -91 2034 -91 
Q 1250 -91 836 529 
Q 422 1150 422 2328 
Q 422 3509 836 4129 
Q 1250 4750 2034 4750 
z
" transform="scale(0.015625)"/>
        <path id="DejaVuSans-36" d="M 2113 2584 
Q 1688 2584 1439 2293 
Q 1191 2003 1191 1497 
Q 1191 994 1439 701 
Q 1688 409 2113 409 
Q 2538 409 2786 701 
Q 3034 994 3034 1497 
Q 3034 2003 2786 2293 
Q 2538 2584 2113 2584 
z
M 3366 4563 
L 3366 3988 
Q 3128 4100 2886 4159 
Q 2644 4219 2406 4219 
Q 1781 4219 1451 3797 
Q 1122 3375 1075 2522 
Q 1259 2794 1537 2939 
Q 1816 3084 2150 3084 
Q 2853 3084 3261 2657 
Q 3669 2231 3669 1497 
Q 3669 778 3244 343 
Q 2819 -91 2113 -91 
Q 1303 -91 875 529 
Q 447 1150 447 2328 
Q 447 3434 972 4092 
Q 1497 4750 2381 4750 
Q 2619 4750 2861 4703 
Q 3103 4656 3366 4563 
z
" transform="scale(0.015625)"/>
        <path id="DejaVuSans-2d" d="M 313 2009 
L 1997 2009 
L 1997 1497 
L 313 1497 
L 313 2009 
z
" transform="scale(0.015625)"/>
       </defs>
       <use xlink:href="#DejaVuSans-66"/>
       <use xlink:href="#DejaVuSans-74" transform="translate(33.455078 0)"/>
       <use xlink:href="#DejaVuSans-30" transform="translate(72.664062 0)"/>
       <use xlink:href="#DejaVuSans-36" transform="translate(136.287109 0)"/>
       <use xlink:href="#DejaVuSans-2d" transform="translate(199.910156 0)"/>
       <use xlink:href="#DejaVuSans-74" transform="translate(235.994141 0)"/>
      </g>
     </g>
    </g>
    <g id="xtick_2">
     <g id="line2d_2">
      <g>
       <use xlink:href="#ma2f3d95ff9" x="45.586002" y="101.801472" style="stroke: #000000; stroke-width: 0.8"/>
      </g>
     </g>
     <g id="text_2">
      <!-- ft10-t -->
      <g transform="translate(43.341901 122.611524) rotate(-60) scale(0.04998 -0.04998)">
       <defs>
        <path id="DejaVuSans-31" d="M 794 531 
L 1825 531 
L 1825 4091 
L 703 3866 
L 703 4441 
L 1819 4666 
L 2450 4666 
L 2450 531 
L 3481 531 
L 3481 0 
L 794 0 
L 794 531 
z
" transform="scale(0.015625)"/>
       </defs>
       <use xlink:href="#DejaVuSans-66"/>
       <use xlink:href="#DejaVuSans-74" transform="translate(33.455078 0)"/>
       <use xlink:href="#DejaVuSans-31" transform="translate(72.664062 0)"/>
       <use xlink:href="#DejaVuSans-30" transform="translate(136.287109 0)"/>
       <use xlink:href="#DejaVuSans-2d" transform="translate(199.910156 0)"/>
       <use xlink:href="#DejaVuSans-74" transform="translate(235.994141 0)"/>
      </g>
     </g>
    </g>
    <g id="xtick_3">
     <g id="line2d_3">
      <g>
       <use xlink:href="#ma2f3d95ff9" x="52.296063" y="101.801472" style="stroke: #000000; stroke-width: 0.8"/>
      </g>
     </g>
     <g id="text_3">
      <!-- la01-t -->
      <g transform="translate(49.846966 123.321651) rotate(-60) scale(0.04998 -0.04998)">
       <defs>
        <path id="DejaVuSans-6c" d="M 603 4863 
L 1178 4863 
L 1178 0 
L 603 0 
L 603 4863 
z
" transform="scale(0.015625)"/>
        <path id="DejaVuSans-61" d="M 2194 1759 
Q 1497 1759 1228 1600 
Q 959 1441 959 1056 
Q 959 750 1161 570 
Q 1363 391 1709 391 
Q 2188 391 2477 730 
Q 2766 1069 2766 1631 
L 2766 1759 
L 2194 1759 
z
M 3341 1997 
L 3341 0 
L 2766 0 
L 2766 531 
Q 2569 213 2275 61 
Q 1981 -91 1556 -91 
Q 1019 -91 701 211 
Q 384 513 384 1019 
Q 384 1609 779 1909 
Q 1175 2209 1959 2209 
L 2766 2209 
L 2766 2266 
Q 2766 2663 2505 2880 
Q 2244 3097 1772 3097 
Q 1472 3097 1187 3025 
Q 903 2953 641 2809 
L 641 3341 
Q 956 3463 1253 3523 
Q 1550 3584 1831 3584 
Q 2591 3584 2966 3190 
Q 3341 2797 3341 1997 
z
" transform="scale(0.015625)"/>
       </defs>
       <use xlink:href="#DejaVuSans-6c"/>
       <use xlink:href="#DejaVuSans-61" transform="translate(27.783203 0)"/>
       <use xlink:href="#DejaVuSans-30" transform="translate(89.0625 0)"/>
       <use xlink:href="#DejaVuSans-31" transform="translate(152.685547 0)"/>
       <use xlink:href="#DejaVuSans-2d" transform="translate(216.308594 0)"/>
       <use xlink:href="#DejaVuSans-74" transform="translate(252.392578 0)"/>
      </g>
     </g>
    </g>
    <g id="xtick_4">
     <g id="line2d_4">
      <g>
       <use xlink:href="#ma2f3d95ff9" x="59.006124" y="101.801472" style="stroke: #000000; stroke-width: 0.8"/>
      </g>
     </g>
     <g id="text_4">
      <!-- la02-t -->
      <g transform="translate(56.557027 123.321651) rotate(-60) scale(0.04998 -0.04998)">
       <defs>
        <path id="DejaVuSans-32" d="M 1228 531 
L 3431 531 
L 3431 0 
L 469 0 
L 469 531 
Q 828 903 1448 1529 
Q 2069 2156 2228 2338 
Q 2531 2678 2651 2914 
Q 2772 3150 2772 3378 
Q 2772 3750 2511 3984 
Q 2250 4219 1831 4219 
Q 1534 4219 1204 4116 
Q 875 4013 500 3803 
L 500 4441 
Q 881 4594 1212 4672 
Q 1544 4750 1819 4750 
Q 2544 4750 2975 4387 
Q 3406 4025 3406 3419 
Q 3406 3131 3298 2873 
Q 3191 2616 2906 2266 
Q 2828 2175 2409 1742 
Q 1991 1309 1228 531 
z
" transform="scale(0.015625)"/>
       </defs>
       <use xlink:href="#DejaVuSans-6c"/>
       <use xlink:href="#DejaVuSans-61" transform="translate(27.783203 0)"/>
       <use xlink:href="#DejaVuSans-30" transform="translate(89.0625 0)"/>
       <use xlink:href="#DejaVuSans-32" transform="translate(152.685547 0)"/>
       <use xlink:href="#DejaVuSans-2d" transform="translate(216.308594 0)"/>
       <use xlink:href="#DejaVuSans-74" transform="translate(252.392578 0)"/>
      </g>
     </g>
    </g>
    <g id="xtick_5">
     <g id="line2d_5">
      <g>
       <use xlink:href="#ma2f3d95ff9" x="65.716185" y="101.801472" style="stroke: #000000; stroke-width: 0.8"/>
      </g>
     </g>
     <g id="text_5">
      <!-- la03-t -->
      <g transform="translate(63.267088 123.321651) rotate(-60) scale(0.04998 -0.04998)">
       <defs>
        <path id="DejaVuSans-33" d="M 2597 2516 
Q 3050 2419 3304 2112 
Q 3559 1806 3559 1356 
Q 3559 666 3084 287 
Q 2609 -91 1734 -91 
Q 1441 -91 1130 -33 
Q 819 25 488 141 
L 488 750 
Q 750 597 1062 519 
Q 1375 441 1716 441 
Q 2309 441 2620 675 
Q 2931 909 2931 1356 
Q 2931 1769 2642 2001 
Q 2353 2234 1838 2234 
L 1294 2234 
L 1294 2753 
L 1863 2753 
Q 2328 2753 2575 2939 
Q 2822 3125 2822 3475 
Q 2822 3834 2567 4026 
Q 2313 4219 1838 4219 
Q 1578 4219 1281 4162 
Q 984 4106 628 3988 
L 628 4550 
Q 988 4650 1302 4700 
Q 1616 4750 1894 4750 
Q 2613 4750 3031 4423 
Q 3450 4097 3450 3541 
Q 3450 3153 3228 2886 
Q 3006 2619 2597 2516 
z
" transform="scale(0.015625)"/>
       </defs>
       <use xlink:href="#DejaVuSans-6c"/>
       <use xlink:href="#DejaVuSans-61" transform="translate(27.783203 0)"/>
       <use xlink:href="#DejaVuSans-30" transform="translate(89.0625 0)"/>
       <use xlink:href="#DejaVuSans-33" transform="translate(152.685547 0)"/>
       <use xlink:href="#DejaVuSans-2d" transform="translate(216.308594 0)"/>
       <use xlink:href="#DejaVuSans-74" transform="translate(252.392578 0)"/>
      </g>
     </g>
    </g>
    <g id="xtick_6">
     <g id="line2d_6">
      <g>
       <use xlink:href="#ma2f3d95ff9" x="72.426247" y="101.801472" style="stroke: #000000; stroke-width: 0.8"/>
      </g>
     </g>
     <g id="text_6">
      <!-- la04-t -->
      <g transform="translate(69.977149 123.321651) rotate(-60) scale(0.04998 -0.04998)">
       <defs>
        <path id="DejaVuSans-34" d="M 2419 4116 
L 825 1625 
L 2419 1625 
L 2419 4116 
z
M 2253 4666 
L 3047 4666 
L 3047 1625 
L 3713 1625 
L 3713 1100 
L 3047 1100 
L 3047 0 
L 2419 0 
L 2419 1100 
L 313 1100 
L 313 1709 
L 2253 4666 
z
" transform="scale(0.015625)"/>
       </defs>
       <use xlink:href="#DejaVuSans-6c"/>
       <use xlink:href="#DejaVuSans-61" transform="translate(27.783203 0)"/>
       <use xlink:href="#DejaVuSans-30" transform="translate(89.0625 0)"/>
       <use xlink:href="#DejaVuSans-34" transform="translate(152.685547 0)"/>
       <use xlink:href="#DejaVuSans-2d" transform="translate(216.308594 0)"/>
       <use xlink:href="#DejaVuSans-74" transform="translate(252.392578 0)"/>
      </g>
     </g>
    </g>
    <g id="xtick_7">
     <g id="line2d_7">
      <g>
       <use xlink:href="#ma2f3d95ff9" x="79.136308" y="101.801472" style="stroke: #000000; stroke-width: 0.8"/>
      </g>
     </g>
     <g id="text_7">
      <!-- la05-t -->
      <g transform="translate(76.68721 123.321651) rotate(-60) scale(0.04998 -0.04998)">
       <defs>
        <path id="DejaVuSans-35" d="M 691 4666 
L 3169 4666 
L 3169 4134 
L 1269 4134 
L 1269 2991 
Q 1406 3038 1543 3061 
Q 1681 3084 1819 3084 
Q 2600 3084 3056 2656 
Q 3513 2228 3513 1497 
Q 3513 744 3044 326 
Q 2575 -91 1722 -91 
Q 1428 -91 1123 -41 
Q 819 9 494 109 
L 494 744 
Q 775 591 1075 516 
Q 1375 441 1709 441 
Q 2250 441 2565 725 
Q 2881 1009 2881 1497 
Q 2881 1984 2565 2268 
Q 2250 2553 1709 2553 
Q 1456 2553 1204 2497 
Q 953 2441 691 2322 
L 691 4666 
z
" transform="scale(0.015625)"/>
       </defs>
       <use xlink:href="#DejaVuSans-6c"/>
       <use xlink:href="#DejaVuSans-61" transform="translate(27.783203 0)"/>
       <use xlink:href="#DejaVuSans-30" transform="translate(89.0625 0)"/>
       <use xlink:href="#DejaVuSans-35" transform="translate(152.685547 0)"/>
       <use xlink:href="#DejaVuSans-2d" transform="translate(216.308594 0)"/>
       <use xlink:href="#DejaVuSans-74" transform="translate(252.392578 0)"/>
      </g>
     </g>
    </g>
    <g id="xtick_8">
     <g id="line2d_8">
      <g>
       <use xlink:href="#ma2f3d95ff9" x="85.846369" y="101.801472" style="stroke: #000000; stroke-width: 0.8"/>
      </g>
     </g>
     <g id="text_8">
      <!-- la06-t -->
      <g transform="translate(83.397271 123.321651) rotate(-60) scale(0.04998 -0.04998)">
       <use xlink:href="#DejaVuSans-6c"/>
       <use xlink:href="#DejaVuSans-61" transform="translate(27.783203 0)"/>
       <use xlink:href="#DejaVuSans-30" transform="translate(89.0625 0)"/>
       <use xlink:href="#DejaVuSans-36" transform="translate(152.685547 0)"/>
       <use xlink:href="#DejaVuSans-2d" transform="translate(216.308594 0)"/>
       <use xlink:href="#DejaVuSans-74" transform="translate(252.392578 0)"/>
      </g>
     </g>
    </g>
    <g id="xtick_9">
     <g id="line2d_9">
      <g>
       <use xlink:href="#ma2f3d95ff9" x="92.55643" y="101.801472" style="stroke: #000000; stroke-width: 0.8"/>
      </g>
     </g>
     <g id="text_9">
      <!-- la07-t -->
      <g transform="translate(90.107333 123.321651) rotate(-60) scale(0.04998 -0.04998)">
       <defs>
        <path id="DejaVuSans-37" d="M 525 4666 
L 3525 4666 
L 3525 4397 
L 1831 0 
L 1172 0 
L 2766 4134 
L 525 4134 
L 525 4666 
z
" transform="scale(0.015625)"/>
       </defs>
       <use xlink:href="#DejaVuSans-6c"/>
       <use xlink:href="#DejaVuSans-61" transform="translate(27.783203 0)"/>
       <use xlink:href="#DejaVuSans-30" transform="translate(89.0625 0)"/>
       <use xlink:href="#DejaVuSans-37" transform="translate(152.685547 0)"/>
       <use xlink:href="#DejaVuSans-2d" transform="translate(216.308594 0)"/>
       <use xlink:href="#DejaVuSans-74" transform="translate(252.392578 0)"/>
      </g>
     </g>
    </g>
    <g id="xtick_10">
     <g id="line2d_10">
      <g>
       <use xlink:href="#ma2f3d95ff9" x="99.266491" y="101.801472" style="stroke: #000000; stroke-width: 0.8"/>
      </g>
     </g>
     <g id="text_10">
      <!-- la08-t -->
      <g transform="translate(96.817394 123.321651) rotate(-60) scale(0.04998 -0.04998)">
       <defs>
        <path id="DejaVuSans-38" d="M 2034 2216 
Q 1584 2216 1326 1975 
Q 1069 1734 1069 1313 
Q 1069 891 1326 650 
Q 1584 409 2034 409 
Q 2484 409 2743 651 
Q 3003 894 3003 1313 
Q 3003 1734 2745 1975 
Q 2488 2216 2034 2216 
z
M 1403 2484 
Q 997 2584 770 2862 
Q 544 3141 544 3541 
Q 544 4100 942 4425 
Q 1341 4750 2034 4750 
Q 2731 4750 3128 4425 
Q 3525 4100 3525 3541 
Q 3525 3141 3298 2862 
Q 3072 2584 2669 2484 
Q 3125 2378 3379 2068 
Q 3634 1759 3634 1313 
Q 3634 634 3220 271 
Q 2806 -91 2034 -91 
Q 1263 -91 848 271 
Q 434 634 434 1313 
Q 434 1759 690 2068 
Q 947 2378 1403 2484 
z
M 1172 3481 
Q 1172 3119 1398 2916 
Q 1625 2713 2034 2713 
Q 2441 2713 2670 2916 
Q 2900 3119 2900 3481 
Q 2900 3844 2670 4047 
Q 2441 4250 2034 4250 
Q 1625 4250 1398 4047 
Q 1172 3844 1172 3481 
z
" transform="scale(0.015625)"/>
       </defs>
       <use xlink:href="#DejaVuSans-6c"/>
       <use xlink:href="#DejaVuSans-61" transform="translate(27.783203 0)"/>
       <use xlink:href="#DejaVuSans-30" transform="translate(89.0625 0)"/>
       <use xlink:href="#DejaVuSans-38" transform="translate(152.685547 0)"/>
       <use xlink:href="#DejaVuSans-2d" transform="translate(216.308594 0)"/>
       <use xlink:href="#DejaVuSans-74" transform="translate(252.392578 0)"/>
      </g>
     </g>
    </g>
    <g id="xtick_11">
     <g id="line2d_11">
      <g>
       <use xlink:href="#ma2f3d95ff9" x="105.976552" y="101.801472" style="stroke: #000000; stroke-width: 0.8"/>
      </g>
     </g>
     <g id="text_11">
      <!-- la09-t -->
      <g transform="translate(103.527455 123.321651) rotate(-60) scale(0.04998 -0.04998)">
       <defs>
        <path id="DejaVuSans-39" d="M 703 97 
L 703 672 
Q 941 559 1184 500 
Q 1428 441 1663 441 
Q 2288 441 2617 861 
Q 2947 1281 2994 2138 
Q 2813 1869 2534 1725 
Q 2256 1581 1919 1581 
Q 1219 1581 811 2004 
Q 403 2428 403 3163 
Q 403 3881 828 4315 
Q 1253 4750 1959 4750 
Q 2769 4750 3195 4129 
Q 3622 3509 3622 2328 
Q 3622 1225 3098 567 
Q 2575 -91 1691 -91 
Q 1453 -91 1209 -44 
Q 966 3 703 97 
z
M 1959 2075 
Q 2384 2075 2632 2365 
Q 2881 2656 2881 3163 
Q 2881 3666 2632 3958 
Q 2384 4250 1959 4250 
Q 1534 4250 1286 3958 
Q 1038 3666 1038 3163 
Q 1038 2656 1286 2365 
Q 1534 2075 1959 2075 
z
" transform="scale(0.015625)"/>
       </defs>
       <use xlink:href="#DejaVuSans-6c"/>
       <use xlink:href="#DejaVuSans-61" transform="translate(27.783203 0)"/>
       <use xlink:href="#DejaVuSans-30" transform="translate(89.0625 0)"/>
       <use xlink:href="#DejaVuSans-39" transform="translate(152.685547 0)"/>
       <use xlink:href="#DejaVuSans-2d" transform="translate(216.308594 0)"/>
       <use xlink:href="#DejaVuSans-74" transform="translate(252.392578 0)"/>
      </g>
     </g>
    </g>
    <g id="xtick_12">
     <g id="line2d_12">
      <g>
       <use xlink:href="#ma2f3d95ff9" x="112.686613" y="101.801472" style="stroke: #000000; stroke-width: 0.8"/>
      </g>
     </g>
     <g id="text_12">
      <!-- la10-t -->
      <g transform="translate(110.237516 123.321651) rotate(-60) scale(0.04998 -0.04998)">
       <use xlink:href="#DejaVuSans-6c"/>
       <use xlink:href="#DejaVuSans-61" transform="translate(27.783203 0)"/>
       <use xlink:href="#DejaVuSans-31" transform="translate(89.0625 0)"/>
       <use xlink:href="#DejaVuSans-30" transform="translate(152.685547 0)"/>
       <use xlink:href="#DejaVuSans-2d" transform="translate(216.308594 0)"/>
       <use xlink:href="#DejaVuSans-74" transform="translate(252.392578 0)"/>
      </g>
     </g>
    </g>
    <g id="xtick_13">
     <g id="line2d_13">
      <g>
       <use xlink:href="#ma2f3d95ff9" x="119.396675" y="101.801472" style="stroke: #000000; stroke-width: 0.8"/>
      </g>
     </g>
     <g id="text_13">
      <!-- la11-t -->
      <g transform="translate(116.947577 123.321651) rotate(-60) scale(0.04998 -0.04998)">
       <use xlink:href="#DejaVuSans-6c"/>
       <use xlink:href="#DejaVuSans-61" transform="translate(27.783203 0)"/>
       <use xlink:href="#DejaVuSans-31" transform="translate(89.0625 0)"/>
       <use xlink:href="#DejaVuSans-31" transform="translate(152.685547 0)"/>
       <use xlink:href="#DejaVuSans-2d" transform="translate(216.308594 0)"/>
       <use xlink:href="#DejaVuSans-74" transform="translate(252.392578 0)"/>
      </g>
     </g>
    </g>
    <g id="xtick_14">
     <g id="line2d_14">
      <g>
       <use xlink:href="#ma2f3d95ff9" x="126.106736" y="101.801472" style="stroke: #000000; stroke-width: 0.8"/>
      </g>
     </g>
     <g id="text_14">
      <!-- la12-t -->
      <g transform="translate(123.657638 123.321651) rotate(-60) scale(0.04998 -0.04998)">
       <use xlink:href="#DejaVuSans-6c"/>
       <use xlink:href="#DejaVuSans-61" transform="translate(27.783203 0)"/>
       <use xlink:href="#DejaVuSans-31" transform="translate(89.0625 0)"/>
       <use xlink:href="#DejaVuSans-32" transform="translate(152.685547 0)"/>
       <use xlink:href="#DejaVuSans-2d" transform="translate(216.308594 0)"/>
       <use xlink:href="#DejaVuSans-74" transform="translate(252.392578 0)"/>
      </g>
     </g>
    </g>
    <g id="xtick_15">
     <g id="line2d_15">
      <g>
       <use xlink:href="#ma2f3d95ff9" x="132.816797" y="101.801472" style="stroke: #000000; stroke-width: 0.8"/>
      </g>
     </g>
     <g id="text_15">
      <!-- la13-t -->
      <g transform="translate(130.367699 123.321651) rotate(-60) scale(0.04998 -0.04998)">
       <use xlink:href="#DejaVuSans-6c"/>
       <use xlink:href="#DejaVuSans-61" transform="translate(27.783203 0)"/>
       <use xlink:href="#DejaVuSans-31" transform="translate(89.0625 0)"/>
       <use xlink:href="#DejaVuSans-33" transform="translate(152.685547 0)"/>
       <use xlink:href="#DejaVuSans-2d" transform="translate(216.308594 0)"/>
       <use xlink:href="#DejaVuSans-74" transform="translate(252.392578 0)"/>
      </g>
     </g>
    </g>
    <g id="xtick_16">
     <g id="line2d_16">
      <g>
       <use xlink:href="#ma2f3d95ff9" x="139.526858" y="101.801472" style="stroke: #000000; stroke-width: 0.8"/>
      </g>
     </g>
     <g id="text_16">
      <!-- la14-t -->
      <g transform="translate(137.077761 123.321651) rotate(-60) scale(0.04998 -0.04998)">
       <use xlink:href="#DejaVuSans-6c"/>
       <use xlink:href="#DejaVuSans-61" transform="translate(27.783203 0)"/>
       <use xlink:href="#DejaVuSans-31" transform="translate(89.0625 0)"/>
       <use xlink:href="#DejaVuSans-34" transform="translate(152.685547 0)"/>
       <use xlink:href="#DejaVuSans-2d" transform="translate(216.308594 0)"/>
       <use xlink:href="#DejaVuSans-74" transform="translate(252.392578 0)"/>
      </g>
     </g>
    </g>
    <g id="xtick_17">
     <g id="line2d_17">
      <g>
       <use xlink:href="#ma2f3d95ff9" x="146.236919" y="101.801472" style="stroke: #000000; stroke-width: 0.8"/>
      </g>
     </g>
     <g id="text_17">
      <!-- la15-t -->
      <g transform="translate(143.787822 123.321651) rotate(-60) scale(0.04998 -0.04998)">
       <use xlink:href="#DejaVuSans-6c"/>
       <use xlink:href="#DejaVuSans-61" transform="translate(27.783203 0)"/>
       <use xlink:href="#DejaVuSans-31" transform="translate(89.0625 0)"/>
       <use xlink:href="#DejaVuSans-35" transform="translate(152.685547 0)"/>
       <use xlink:href="#DejaVuSans-2d" transform="translate(216.308594 0)"/>
       <use xlink:href="#DejaVuSans-74" transform="translate(252.392578 0)"/>
      </g>
     </g>
    </g>
    <g id="xtick_18">
     <g id="line2d_18">
      <g>
       <use xlink:href="#ma2f3d95ff9" x="152.94698" y="101.801472" style="stroke: #000000; stroke-width: 0.8"/>
      </g>
     </g>
     <g id="text_18">
      <!-- la16-t -->
      <g transform="translate(150.497883 123.321651) rotate(-60) scale(0.04998 -0.04998)">
       <use xlink:href="#DejaVuSans-6c"/>
       <use xlink:href="#DejaVuSans-61" transform="translate(27.783203 0)"/>
       <use xlink:href="#DejaVuSans-31" transform="translate(89.0625 0)"/>
       <use xlink:href="#DejaVuSans-36" transform="translate(152.685547 0)"/>
       <use xlink:href="#DejaVuSans-2d" transform="translate(216.308594 0)"/>
       <use xlink:href="#DejaVuSans-74" transform="translate(252.392578 0)"/>
      </g>
     </g>
    </g>
    <g id="xtick_19">
     <g id="line2d_19">
      <g>
       <use xlink:href="#ma2f3d95ff9" x="159.657041" y="101.801472" style="stroke: #000000; stroke-width: 0.8"/>
      </g>
     </g>
     <g id="text_19">
      <!-- la17-t -->
      <g transform="translate(157.207944 123.321651) rotate(-60) scale(0.04998 -0.04998)">
       <use xlink:href="#DejaVuSans-6c"/>
       <use xlink:href="#DejaVuSans-61" transform="translate(27.783203 0)"/>
       <use xlink:href="#DejaVuSans-31" transform="translate(89.0625 0)"/>
       <use xlink:href="#DejaVuSans-37" transform="translate(152.685547 0)"/>
       <use xlink:href="#DejaVuSans-2d" transform="translate(216.308594 0)"/>
       <use xlink:href="#DejaVuSans-74" transform="translate(252.392578 0)"/>
      </g>
     </g>
    </g>
    <g id="xtick_20">
     <g id="line2d_20">
      <g>
       <use xlink:href="#ma2f3d95ff9" x="166.367103" y="101.801472" style="stroke: #000000; stroke-width: 0.8"/>
      </g>
     </g>
     <g id="text_20">
      <!-- la18-t -->
      <g transform="translate(163.918005 123.321651) rotate(-60) scale(0.04998 -0.04998)">
       <use xlink:href="#DejaVuSans-6c"/>
       <use xlink:href="#DejaVuSans-61" transform="translate(27.783203 0)"/>
       <use xlink:href="#DejaVuSans-31" transform="translate(89.0625 0)"/>
       <use xlink:href="#DejaVuSans-38" transform="translate(152.685547 0)"/>
       <use xlink:href="#DejaVuSans-2d" transform="translate(216.308594 0)"/>
       <use xlink:href="#DejaVuSans-74" transform="translate(252.392578 0)"/>
      </g>
     </g>
    </g>
    <g id="xtick_21">
     <g id="line2d_21">
      <g>
       <use xlink:href="#ma2f3d95ff9" x="173.077164" y="101.801472" style="stroke: #000000; stroke-width: 0.8"/>
      </g>
     </g>
     <g id="text_21">
      <!-- la19-t -->
      <g transform="translate(170.628066 123.321651) rotate(-60) scale(0.04998 -0.04998)">
       <use xlink:href="#DejaVuSans-6c"/>
       <use xlink:href="#DejaVuSans-61" transform="translate(27.783203 0)"/>
       <use xlink:href="#DejaVuSans-31" transform="translate(89.0625 0)"/>
       <use xlink:href="#DejaVuSans-39" transform="translate(152.685547 0)"/>
       <use xlink:href="#DejaVuSans-2d" transform="translate(216.308594 0)"/>
       <use xlink:href="#DejaVuSans-74" transform="translate(252.392578 0)"/>
      </g>
     </g>
    </g>
    <g id="xtick_22">
     <g id="line2d_22">
      <g>
       <use xlink:href="#ma2f3d95ff9" x="179.787225" y="101.801472" style="stroke: #000000; stroke-width: 0.8"/>
      </g>
     </g>
     <g id="text_22">
      <!-- la20-t -->
      <g transform="translate(177.338127 123.321651) rotate(-60) scale(0.04998 -0.04998)">
       <use xlink:href="#DejaVuSans-6c"/>
       <use xlink:href="#DejaVuSans-61" transform="translate(27.783203 0)"/>
       <use xlink:href="#DejaVuSans-32" transform="translate(89.0625 0)"/>
       <use xlink:href="#DejaVuSans-30" transform="translate(152.685547 0)"/>
       <use xlink:href="#DejaVuSans-2d" transform="translate(216.308594 0)"/>
       <use xlink:href="#DejaVuSans-74" transform="translate(252.392578 0)"/>
      </g>
     </g>
    </g>
    <g id="xtick_23">
     <g id="line2d_23">
      <g>
       <use xlink:href="#ma2f3d95ff9" x="186.497286" y="101.801472" style="stroke: #000000; stroke-width: 0.8"/>
      </g>
     </g>
     <g id="text_23">
      <!-- la21-t -->
      <g transform="translate(184.048189 123.321651) rotate(-60) scale(0.04998 -0.04998)">
       <use xlink:href="#DejaVuSans-6c"/>
       <use xlink:href="#DejaVuSans-61" transform="translate(27.783203 0)"/>
       <use xlink:href="#DejaVuSans-32" transform="translate(89.0625 0)"/>
       <use xlink:href="#DejaVuSans-31" transform="translate(152.685547 0)"/>
       <use xlink:href="#DejaVuSans-2d" transform="translate(216.308594 0)"/>
       <use xlink:href="#DejaVuSans-74" transform="translate(252.392578 0)"/>
      </g>
     </g>
    </g>
    <g id="xtick_24">
     <g id="line2d_24">
      <g>
       <use xlink:href="#ma2f3d95ff9" x="193.207347" y="101.801472" style="stroke: #000000; stroke-width: 0.8"/>
      </g>
     </g>
     <g id="text_24">
      <!-- la22-t -->
      <g transform="translate(190.75825 123.321651) rotate(-60) scale(0.04998 -0.04998)">
       <use xlink:href="#DejaVuSans-6c"/>
       <use xlink:href="#DejaVuSans-61" transform="translate(27.783203 0)"/>
       <use xlink:href="#DejaVuSans-32" transform="translate(89.0625 0)"/>
       <use xlink:href="#DejaVuSans-32" transform="translate(152.685547 0)"/>
       <use xlink:href="#DejaVuSans-2d" transform="translate(216.308594 0)"/>
       <use xlink:href="#DejaVuSans-74" transform="translate(252.392578 0)"/>
      </g>
     </g>
    </g>
    <g id="xtick_25">
     <g id="line2d_25">
      <g>
       <use xlink:href="#ma2f3d95ff9" x="199.917408" y="101.801472" style="stroke: #000000; stroke-width: 0.8"/>
      </g>
     </g>
     <g id="text_25">
      <!-- la23-t -->
      <g transform="translate(197.468311 123.321651) rotate(-60) scale(0.04998 -0.04998)">
       <use xlink:href="#DejaVuSans-6c"/>
       <use xlink:href="#DejaVuSans-61" transform="translate(27.783203 0)"/>
       <use xlink:href="#DejaVuSans-32" transform="translate(89.0625 0)"/>
       <use xlink:href="#DejaVuSans-33" transform="translate(152.685547 0)"/>
       <use xlink:href="#DejaVuSans-2d" transform="translate(216.308594 0)"/>
       <use xlink:href="#DejaVuSans-74" transform="translate(252.392578 0)"/>
      </g>
     </g>
    </g>
    <g id="xtick_26">
     <g id="line2d_26">
      <g>
       <use xlink:href="#ma2f3d95ff9" x="206.627469" y="101.801472" style="stroke: #000000; stroke-width: 0.8"/>
      </g>
     </g>
     <g id="text_26">
      <!-- la24-t -->
      <g transform="translate(204.178372 123.321651) rotate(-60) scale(0.04998 -0.04998)">
       <use xlink:href="#DejaVuSans-6c"/>
       <use xlink:href="#DejaVuSans-61" transform="translate(27.783203 0)"/>
       <use xlink:href="#DejaVuSans-32" transform="translate(89.0625 0)"/>
       <use xlink:href="#DejaVuSans-34" transform="translate(152.685547 0)"/>
       <use xlink:href="#DejaVuSans-2d" transform="translate(216.308594 0)"/>
       <use xlink:href="#DejaVuSans-74" transform="translate(252.392578 0)"/>
      </g>
     </g>
    </g>
   </g>
   <g id="matplotlib.axis_2">
    <g id="ytick_1">
     <g id="line2d_27">
      <defs>
       <path id="m2ed4e7358f" d="M 0 0 
L -3.5 0 
" style="stroke: #000000; stroke-width: 0.8"/>
      </defs>
      <g>
       <use xlink:href="#m2ed4e7358f" x="27.535937" y="100.537987" style="stroke: #000000; stroke-width: 0.8"/>
      </g>
     </g>
     <g id="text_27">
      <!-- 5% -->
      <g transform="translate(11.0175 102.817518) scale(0.06 -0.06)">
       <defs>
        <path id="DejaVuSans-25" d="M 4653 2053 
Q 4381 2053 4226 1822 
Q 4072 1591 4072 1178 
Q 4072 772 4226 539 
Q 4381 306 4653 306 
Q 4919 306 5073 539 
Q 5228 772 5228 1178 
Q 5228 1588 5073 1820 
Q 4919 2053 4653 2053 
z
M 4653 2450 
Q 5147 2450 5437 2106 
Q 5728 1763 5728 1178 
Q 5728 594 5436 251 
Q 5144 -91 4653 -91 
Q 4153 -91 3862 251 
Q 3572 594 3572 1178 
Q 3572 1766 3864 2108 
Q 4156 2450 4653 2450 
z
M 1428 4353 
Q 1159 4353 1004 4120 
Q 850 3888 850 3481 
Q 850 3069 1003 2837 
Q 1156 2606 1428 2606 
Q 1700 2606 1854 2837 
Q 2009 3069 2009 3481 
Q 2009 3884 1853 4118 
Q 1697 4353 1428 4353 
z
M 4250 4750 
L 4750 4750 
L 1831 -91 
L 1331 -91 
L 4250 4750 
z
M 1428 4750 
Q 1922 4750 2215 4408 
Q 2509 4066 2509 3481 
Q 2509 2891 2217 2550 
Q 1925 2209 1428 2209 
Q 931 2209 642 2551 
Q 353 2894 353 3481 
Q 353 4063 643 4406 
Q 934 4750 1428 4750 
z
" transform="scale(0.015625)"/>
       </defs>
       <use xlink:href="#DejaVuSans-35"/>
       <use xlink:href="#DejaVuSans-25" transform="translate(63.623047 0)"/>
      </g>
     </g>
    </g>
    <g id="ytick_2">
     <g id="line2d_28">
      <g>
       <use xlink:href="#m2ed4e7358f" x="27.535937" y="86.688712" style="stroke: #000000; stroke-width: 0.8"/>
      </g>
     </g>
     <g id="text_28">
      <!-- 10% -->
      <g transform="translate(7.2 88.968243) scale(0.06 -0.06)">
       <use xlink:href="#DejaVuSans-31"/>
       <use xlink:href="#DejaVuSans-30" transform="translate(63.623047 0)"/>
       <use xlink:href="#DejaVuSans-25" transform="translate(127.246094 0)"/>
      </g>
     </g>
    </g>
    <g id="ytick_3">
     <g id="line2d_29">
      <g>
       <use xlink:href="#m2ed4e7358f" x="27.535937" y="72.839437" style="stroke: #000000; stroke-width: 0.8"/>
      </g>
     </g>
     <g id="text_29">
      <!-- 15% -->
      <g transform="translate(7.2 75.118968) scale(0.06 -0.06)">
       <use xlink:href="#DejaVuSans-31"/>
       <use xlink:href="#DejaVuSans-35" transform="translate(63.623047 0)"/>
       <use xlink:href="#DejaVuSans-25" transform="translate(127.246094 0)"/>
      </g>
     </g>
    </g>
    <g id="ytick_4">
     <g id="line2d_30">
      <g>
       <use xlink:href="#m2ed4e7358f" x="27.535937" y="58.990163" style="stroke: #000000; stroke-width: 0.8"/>
      </g>
     </g>
     <g id="text_30">
      <!-- 20% -->
      <g transform="translate(7.2 61.269694) scale(0.06 -0.06)">
       <use xlink:href="#DejaVuSans-32"/>
       <use xlink:href="#DejaVuSans-30" transform="translate(63.623047 0)"/>
       <use xlink:href="#DejaVuSans-25" transform="translate(127.246094 0)"/>
      </g>
     </g>
    </g>
    <g id="ytick_5">
     <g id="line2d_31">
      <g>
       <use xlink:href="#m2ed4e7358f" x="27.535937" y="45.140888" style="stroke: #000000; stroke-width: 0.8"/>
      </g>
     </g>
     <g id="text_31">
      <!-- 25% -->
      <g transform="translate(7.2 47.420419) scale(0.06 -0.06)">
       <use xlink:href="#DejaVuSans-32"/>
       <use xlink:href="#DejaVuSans-35" transform="translate(63.623047 0)"/>
       <use xlink:href="#DejaVuSans-25" transform="translate(127.246094 0)"/>
      </g>
     </g>
    </g>
    <g id="ytick_6">
     <g id="line2d_32">
      <g>
       <use xlink:href="#m2ed4e7358f" x="27.535937" y="31.291613" style="stroke: #000000; stroke-width: 0.8"/>
      </g>
     </g>
     <g id="text_32">
      <!-- 30% -->
      <g transform="translate(7.2 33.571144) scale(0.06 -0.06)">
       <use xlink:href="#DejaVuSans-33"/>
       <use xlink:href="#DejaVuSans-30" transform="translate(63.623047 0)"/>
       <use xlink:href="#DejaVuSans-25" transform="translate(127.246094 0)"/>
      </g>
     </g>
    </g>
    <g id="ytick_7">
     <g id="line2d_33">
      <g>
       <use xlink:href="#m2ed4e7358f" x="27.535937" y="17.442338" style="stroke: #000000; stroke-width: 0.8"/>
      </g>
     </g>
     <g id="text_33">
      <!-- 35% -->
      <g transform="translate(7.2 19.72187) scale(0.06 -0.06)">
       <use xlink:href="#DejaVuSans-33"/>
       <use xlink:href="#DejaVuSans-35" transform="translate(63.623047 0)"/>
       <use xlink:href="#DejaVuSans-25" transform="translate(127.246094 0)"/>
      </g>
     </g>
    </g>
   </g>
   <g id="patch_55">
    <path d="M 27.535937 101.801472 
L 27.535937 7.2 
" style="fill: none; stroke: #000000; stroke-width: 0.8; stroke-linejoin: miter; stroke-linecap: square"/>
   </g>
   <g id="patch_56">
    <path d="M 217.967473 101.801472 
L 217.967473 7.2 
" style="fill: none; stroke: #000000; stroke-width: 0.8; stroke-linejoin: miter; stroke-linecap: square"/>
   </g>
   <g id="patch_57">
    <path d="M 27.535938 101.801472 
L 217.967473 101.801472 
" style="fill: none; stroke: #000000; stroke-width: 0.8; stroke-linejoin: miter; stroke-linecap: square"/>
   </g>
   <g id="patch_58">
    <path d="M 27.535938 7.2 
L 217.967473 7.2 
" style="fill: none; stroke: #000000; stroke-width: 0.8; stroke-linejoin: miter; stroke-linecap: square"/>
   </g>
   <g id="legend_1">
    <g id="patch_59">
     <path d="M 57.437955 147.669432 
L 188.065455 147.669432 
Q 189.265455 147.669432 189.265455 146.469432 
L 189.265455 131.54387 
Q 189.265455 130.34387 188.065455 130.34387 
L 57.437955 130.34387 
Q 56.237955 130.34387 56.237955 131.54387 
L 56.237955 146.469432 
Q 56.237955 147.669432 57.437955 147.669432 
z
" style="fill: #ffffff; opacity: 0.8"/>
    </g>
    <g id="patch_60">
     <path d="M 58.637955 141.286182 
L 70.637955 141.286182 
L 70.637955 137.086182 
L 58.637955 137.086182 
z
"/>
    </g>
    <g id="text_34">
     <!-- Improvement -->
     <g transform="translate(75.437955 137.302932) scale(0.06 -0.06)">
      <defs>
       <path id="DejaVuSans-49" d="M 628 4666 
L 1259 4666 
L 1259 0 
L 628 0 
L 628 4666 
z
" transform="scale(0.015625)"/>
       <path id="DejaVuSans-6d" d="M 3328 2828 
Q 3544 3216 3844 3400 
Q 4144 3584 4550 3584 
Q 5097 3584 5394 3201 
Q 5691 2819 5691 2113 
L 5691 0 
L 5113 0 
L 5113 2094 
Q 5113 2597 4934 2840 
Q 4756 3084 4391 3084 
Q 3944 3084 3684 2787 
Q 3425 2491 3425 1978 
L 3425 0 
L 2847 0 
L 2847 2094 
Q 2847 2600 2669 2842 
Q 2491 3084 2119 3084 
Q 1678 3084 1418 2786 
Q 1159 2488 1159 1978 
L 1159 0 
L 581 0 
L 581 3500 
L 1159 3500 
L 1159 2956 
Q 1356 3278 1631 3431 
Q 1906 3584 2284 3584 
Q 2666 3584 2933 3390 
Q 3200 3197 3328 2828 
z
" transform="scale(0.015625)"/>
       <path id="DejaVuSans-70" d="M 1159 525 
L 1159 -1331 
L 581 -1331 
L 581 3500 
L 1159 3500 
L 1159 2969 
Q 1341 3281 1617 3432 
Q 1894 3584 2278 3584 
Q 2916 3584 3314 3078 
Q 3713 2572 3713 1747 
Q 3713 922 3314 415 
Q 2916 -91 2278 -91 
Q 1894 -91 1617 61 
Q 1341 213 1159 525 
z
M 3116 1747 
Q 3116 2381 2855 2742 
Q 2594 3103 2138 3103 
Q 1681 3103 1420 2742 
Q 1159 2381 1159 1747 
Q 1159 1113 1420 752 
Q 1681 391 2138 391 
Q 2594 391 2855 752 
Q 3116 1113 3116 1747 
z
" transform="scale(0.015625)"/>
       <path id="DejaVuSans-72" d="M 2631 2963 
Q 2534 3019 2420 3045 
Q 2306 3072 2169 3072 
Q 1681 3072 1420 2755 
Q 1159 2438 1159 1844 
L 1159 0 
L 581 0 
L 581 3500 
L 1159 3500 
L 1159 2956 
Q 1341 3275 1631 3429 
Q 1922 3584 2338 3584 
Q 2397 3584 2469 3576 
Q 2541 3569 2628 3553 
L 2631 2963 
z
" transform="scale(0.015625)"/>
       <path id="DejaVuSans-6f" d="M 1959 3097 
Q 1497 3097 1228 2736 
Q 959 2375 959 1747 
Q 959 1119 1226 758 
Q 1494 397 1959 397 
Q 2419 397 2687 759 
Q 2956 1122 2956 1747 
Q 2956 2369 2687 2733 
Q 2419 3097 1959 3097 
z
M 1959 3584 
Q 2709 3584 3137 3096 
Q 3566 2609 3566 1747 
Q 3566 888 3137 398 
Q 2709 -91 1959 -91 
Q 1206 -91 779 398 
Q 353 888 353 1747 
Q 353 2609 779 3096 
Q 1206 3584 1959 3584 
z
" transform="scale(0.015625)"/>
       <path id="DejaVuSans-76" d="M 191 3500 
L 800 3500 
L 1894 563 
L 2988 3500 
L 3597 3500 
L 2284 0 
L 1503 0 
L 191 3500 
z
" transform="scale(0.015625)"/>
       <path id="DejaVuSans-65" d="M 3597 1894 
L 3597 1613 
L 953 1613 
Q 991 1019 1311 708 
Q 1631 397 2203 397 
Q 2534 397 2845 478 
Q 3156 559 3463 722 
L 3463 178 
Q 3153 47 2828 -22 
Q 2503 -91 2169 -91 
Q 1331 -91 842 396 
Q 353 884 353 1716 
Q 353 2575 817 3079 
Q 1281 3584 2069 3584 
Q 2775 3584 3186 3129 
Q 3597 2675 3597 1894 
z
M 3022 2063 
Q 3016 2534 2758 2815 
Q 2500 3097 2075 3097 
Q 1594 3097 1305 2825 
Q 1016 2553 972 2059 
L 3022 2063 
z
" transform="scale(0.015625)"/>
       <path id="DejaVuSans-6e" d="M 3513 2113 
L 3513 0 
L 2938 0 
L 2938 2094 
Q 2938 2591 2744 2837 
Q 2550 3084 2163 3084 
Q 1697 3084 1428 2787 
Q 1159 2491 1159 1978 
L 1159 0 
L 581 0 
L 581 3500 
L 1159 3500 
L 1159 2956 
Q 1366 3272 1645 3428 
Q 1925 3584 2291 3584 
Q 2894 3584 3203 3211 
Q 3513 2838 3513 2113 
z
" transform="scale(0.015625)"/>
      </defs>
      <use xlink:href="#DejaVuSans-49"/>
      <use xlink:href="#DejaVuSans-6d" transform="translate(29.492188 0)"/>
      <use xlink:href="#DejaVuSans-70" transform="translate(126.904297 0)"/>
      <use xlink:href="#DejaVuSans-72" transform="translate(190.380859 0)"/>
      <use xlink:href="#DejaVuSans-6f" transform="translate(229.244141 0)"/>
      <use xlink:href="#DejaVuSans-76" transform="translate(290.425781 0)"/>
      <use xlink:href="#DejaVuSans-65" transform="translate(349.605469 0)"/>
      <use xlink:href="#DejaVuSans-6d" transform="translate(411.128906 0)"/>
      <use xlink:href="#DejaVuSans-65" transform="translate(508.541016 0)"/>
      <use xlink:href="#DejaVuSans-6e" transform="translate(570.064453 0)"/>
      <use xlink:href="#DejaVuSans-74" transform="translate(633.443359 0)"/>
     </g>
     <!--  over SPT -->
     <g transform="translate(75.437955 144.02162) scale(0.06 -0.06)">
      <defs>
       <path id="DejaVuSans-20" transform="scale(0.015625)"/>
       <path id="DejaVuSans-53" d="M 3425 4513 
L 3425 3897 
Q 3066 4069 2747 4153 
Q 2428 4238 2131 4238 
Q 1616 4238 1336 4038 
Q 1056 3838 1056 3469 
Q 1056 3159 1242 3001 
Q 1428 2844 1947 2747 
L 2328 2669 
Q 3034 2534 3370 2195 
Q 3706 1856 3706 1288 
Q 3706 609 3251 259 
Q 2797 -91 1919 -91 
Q 1588 -91 1214 -16 
Q 841 59 441 206 
L 441 856 
Q 825 641 1194 531 
Q 1563 422 1919 422 
Q 2459 422 2753 634 
Q 3047 847 3047 1241 
Q 3047 1584 2836 1778 
Q 2625 1972 2144 2069 
L 1759 2144 
Q 1053 2284 737 2584 
Q 422 2884 422 3419 
Q 422 4038 858 4394 
Q 1294 4750 2059 4750 
Q 2388 4750 2728 4690 
Q 3069 4631 3425 4513 
z
" transform="scale(0.015625)"/>
       <path id="DejaVuSans-50" d="M 1259 4147 
L 1259 2394 
L 2053 2394 
Q 2494 2394 2734 2622 
Q 2975 2850 2975 3272 
Q 2975 3691 2734 3919 
Q 2494 4147 2053 4147 
L 1259 4147 
z
M 628 4666 
L 2053 4666 
Q 2838 4666 3239 4311 
Q 3641 3956 3641 3272 
Q 3641 2581 3239 2228 
Q 2838 1875 2053 1875 
L 1259 1875 
L 1259 0 
L 628 0 
L 628 4666 
z
" transform="scale(0.015625)"/>
       <path id="DejaVuSans-54" d="M -19 4666 
L 3928 4666 
L 3928 4134 
L 2272 4134 
L 2272 0 
L 1638 0 
L 1638 4134 
L -19 4134 
L -19 4666 
z
" transform="scale(0.015625)"/>
      </defs>
      <use xlink:href="#DejaVuSans-20"/>
      <use xlink:href="#DejaVuSans-6f" transform="translate(31.787109 0)"/>
      <use xlink:href="#DejaVuSans-76" transform="translate(92.96875 0)"/>
      <use xlink:href="#DejaVuSans-65" transform="translate(152.148438 0)"/>
      <use xlink:href="#DejaVuSans-72" transform="translate(213.671875 0)"/>
      <use xlink:href="#DejaVuSans-20" transform="translate(254.785156 0)"/>
      <use xlink:href="#DejaVuSans-53" transform="translate(286.572266 0)"/>
      <use xlink:href="#DejaVuSans-50" transform="translate(350.048828 0)"/>
      <use xlink:href="#DejaVuSans-54" transform="translate(410.351562 0)"/>
     </g>
    </g>
    <g id="patch_61">
     <path d="M 127.798268 141.286182 
L 139.798268 141.286182 
L 139.798268 137.086182 
L 127.798268 137.086182 
z
" style="fill: #ffffff; stroke: #000000; stroke-linejoin: miter"/>
    </g>
    <g id="text_35">
     <!-- Improvement  -->
     <g transform="translate(144.598268 137.302932) scale(0.06 -0.06)">
      <use xlink:href="#DejaVuSans-49"/>
      <use xlink:href="#DejaVuSans-6d" transform="translate(29.492188 0)"/>
      <use xlink:href="#DejaVuSans-70" transform="translate(126.904297 0)"/>
      <use xlink:href="#DejaVuSans-72" transform="translate(190.380859 0)"/>
      <use xlink:href="#DejaVuSans-6f" transform="translate(229.244141 0)"/>
      <use xlink:href="#DejaVuSans-76" transform="translate(290.425781 0)"/>
      <use xlink:href="#DejaVuSans-65" transform="translate(349.605469 0)"/>
      <use xlink:href="#DejaVuSans-6d" transform="translate(411.128906 0)"/>
      <use xlink:href="#DejaVuSans-65" transform="translate(508.541016 0)"/>
      <use xlink:href="#DejaVuSans-6e" transform="translate(570.064453 0)"/>
      <use xlink:href="#DejaVuSans-74" transform="translate(633.443359 0)"/>
      <use xlink:href="#DejaVuSans-20" transform="translate(672.652344 0)"/>
     </g>
     <!--  over MWKR -->
     <g transform="translate(144.598268 144.02162) scale(0.06 -0.06)">
      <defs>
       <path id="DejaVuSans-4d" d="M 628 4666 
L 1569 4666 
L 2759 1491 
L 3956 4666 
L 4897 4666 
L 4897 0 
L 4281 0 
L 4281 4097 
L 3078 897 
L 2444 897 
L 1241 4097 
L 1241 0 
L 628 0 
L 628 4666 
z
" transform="scale(0.015625)"/>
       <path id="DejaVuSans-57" d="M 213 4666 
L 850 4666 
L 1831 722 
L 2809 4666 
L 3519 4666 
L 4500 722 
L 5478 4666 
L 6119 4666 
L 4947 0 
L 4153 0 
L 3169 4050 
L 2175 0 
L 1381 0 
L 213 4666 
z
" transform="scale(0.015625)"/>
       <path id="DejaVuSans-4b" d="M 628 4666 
L 1259 4666 
L 1259 2694 
L 3353 4666 
L 4166 4666 
L 1850 2491 
L 4331 0 
L 3500 0 
L 1259 2247 
L 1259 0 
L 628 0 
L 628 4666 
z
" transform="scale(0.015625)"/>
       <path id="DejaVuSans-52" d="M 2841 2188 
Q 3044 2119 3236 1894 
Q 3428 1669 3622 1275 
L 4263 0 
L 3584 0 
L 2988 1197 
Q 2756 1666 2539 1819 
Q 2322 1972 1947 1972 
L 1259 1972 
L 1259 0 
L 628 0 
L 628 4666 
L 2053 4666 
Q 2853 4666 3247 4331 
Q 3641 3997 3641 3322 
Q 3641 2881 3436 2590 
Q 3231 2300 2841 2188 
z
M 1259 4147 
L 1259 2491 
L 2053 2491 
Q 2509 2491 2742 2702 
Q 2975 2913 2975 3322 
Q 2975 3731 2742 3939 
Q 2509 4147 2053 4147 
L 1259 4147 
z
" transform="scale(0.015625)"/>
      </defs>
      <use xlink:href="#DejaVuSans-20"/>
      <use xlink:href="#DejaVuSans-6f" transform="translate(31.787109 0)"/>
      <use xlink:href="#DejaVuSans-76" transform="translate(92.96875 0)"/>
      <use xlink:href="#DejaVuSans-65" transform="translate(152.148438 0)"/>
      <use xlink:href="#DejaVuSans-72" transform="translate(213.671875 0)"/>
      <use xlink:href="#DejaVuSans-20" transform="translate(254.785156 0)"/>
      <use xlink:href="#DejaVuSans-4d" transform="translate(286.572266 0)"/>
      <use xlink:href="#DejaVuSans-57" transform="translate(372.851562 0)"/>
      <use xlink:href="#DejaVuSans-4b" transform="translate(471.728516 0)"/>
      <use xlink:href="#DejaVuSans-52" transform="translate(537.304688 0)"/>
     </g>
    </g>
   </g>
  </g>
 </g>
 <defs>
  <clipPath id="p7cc57df671">
   <rect x="27.535937" y="7.2" width="190.431535" height="94.601472"/>
  </clipPath>
 </defs>
</svg>
